<svg xmlns="http://www.w3.org/2000/svg" xmlns:xlink="http://www.w3.org/1999/xlink" viewBox="0 0 165.09 129.1"><defs><style>.cls-1{isolation:isolate;}.cls-17,.cls-2,.cls-20,.cls-22,.cls-23,.cls-8{fill:#42e8e0;}.cls-3{opacity:0.1;}.cls-4{fill:#2fd3c7;}.cls-5{fill:#fff;}.cls-6{fill:#18b2a3;opacity:0.7;}.cls-23,.cls-7{opacity:0.2;}.cls-8{mix-blend-mode:lighten;}.cls-9{fill:url(#Áåçûìÿííûé_ãðàäèåíò_18);}.cls-10{fill:#bcbeff;}.cls-11{fill:url(#Áåçûìÿííûé_ãðàäèåíò_18-2);}.cls-12{fill:#0f054c;}.cls-13,.cls-14,.cls-15,.cls-16,.cls-17,.cls-18,.cls-19{opacity:0.5;}.cls-13{fill:url(#Áåçûìÿííûé_ãðàäèåíò_15);}.cls-14{fill:url(#Áåçûìÿííûé_ãðàäèåíò_15-2);}.cls-15{fill:url(#Áåçûìÿííûé_ãðàäèåíò_15-3);}.cls-16{fill:url(#Áåçûìÿííûé_ãðàäèåíò_15-4);}.cls-18{fill:url(#Áåçûìÿííûé_ãðàäèåíò_15-5);}.cls-19{fill:url(#Áåçûìÿííûé_ãðàäèåíò_15-6);}.cls-20{opacity:0.8;}.cls-21{fill:#03002d;}.cls-21,.cls-22{opacity:0.4;}</style><linearGradient id="Áåçûìÿííûé_ãðàäèåíò_18" x1="13.89" y1="79.1" x2="119.96" y2="79.1" gradientUnits="userSpaceOnUse"><stop offset="0" stop-color="#5761d7"/><stop offset="0.16" stop-color="#5e67da"/><stop offset="0.41" stop-color="#727ae2"/><stop offset="0.69" stop-color="#9297ee"/><stop offset="1" stop-color="#bcbeff"/></linearGradient><linearGradient id="Áåçûìÿííûé_ãðàäèåíò_18-2" x1="13.89" y1="68.99" x2="119.96" y2="68.99" xlink:href="#Áåçûìÿííûé_ãðàäèåíò_18"/><linearGradient id="Áåçûìÿííûé_ãðàäèåíò_15" x1="43.91" y1="54.66" x2="107.58" y2="54.66" gradientUnits="userSpaceOnUse"><stop offset="0" stop-color="#42e8e0"/><stop offset="0.15" stop-color="#43e3e0"/><stop offset="0.33" stop-color="#45d5df"/><stop offset="0.52" stop-color="#49bddd"/><stop offset="0.72" stop-color="#4e9cdb"/><stop offset="0.93" stop-color="#5472d8"/><stop offset="1" stop-color="#5761d7"/></linearGradient><linearGradient id="Áåçûìÿííûé_ãðàäèåíò_15-2" x1="75.74" y1="43.15" x2="107.58" y2="43.15" xlink:href="#Áåçûìÿííûé_ãðàäèåíò_15"/><linearGradient id="Áåçûìÿííûé_ãðàäèåíò_15-3" x1="43.91" y1="43.15" x2="75.74" y2="43.15" xlink:href="#Áåçûìÿííûé_ãðàäèåíò_15"/><linearGradient id="Áåçûìÿííûé_ãðàäèåíò_15-4" x1="43.91" y1="50.02" x2="107.58" y2="50.02" xlink:href="#Áåçûìÿííûé_ãðàäèåíò_15"/><linearGradient id="Áåçûìÿííûé_ãðàäèåíò_15-5" x1="75.74" y1="61.53" x2="107.58" y2="61.53" xlink:href="#Áåçûìÿííûé_ãðàäèåíò_15"/><linearGradient id="Áåçûìÿííûé_ãðàäèåíò_15-6" x1="43.91" y1="61.53" x2="75.74" y2="61.53" xlink:href="#Áåçûìÿííûé_ãðàäèåíò_15"/></defs><title>Feature_1</title><g class="cls-1"><g id="Ñëîé_1" data-name="Ñëîé 1"><polygon class="cls-2" points="94.19 35.82 94.11 35.68 111.97 25.29 112 25.32 130.46 35.44 130.38 35.58 111.97 25.48 94.19 35.82"/><g class="cls-3"><polygon class="cls-2" points="75.74 85.2 68.02 80.74 68.02 89.66 75.74 94.12 83.46 89.66 83.46 80.74 75.74 85.2"/><polygon class="cls-2" points="75.74 94.12 68.02 89.66 68.02 80.74 75.74 85.2 75.74 94.12"/><polygon class="cls-4" points="83.46 89.66 75.74 94.12 75.74 85.2 83.46 80.74 83.46 89.66"/><polygon class="cls-2" points="75.74 85.2 68.02 80.74 75.74 76.29 83.46 80.74 75.74 85.2"/><polygon class="cls-5" points="75.74 85.2 68.36 80.94 68.02 81.13 75.74 85.59 83.46 81.13 83.13 80.94 75.74 85.2"/><polygon class="cls-2" points="85.77 90.92 78.05 86.47 78.05 95.38 85.77 99.84 93.49 95.38 93.49 86.47 85.77 90.92"/><polygon class="cls-2" points="85.77 99.84 78.05 95.38 78.05 86.47 85.77 90.92 85.77 99.84"/><polygon class="cls-4" points="93.49 95.38 85.77 99.84 85.77 90.92 93.49 86.47 93.49 95.38"/><polygon class="cls-2" points="85.77 90.92 78.05 86.47 85.77 82.01 93.49 86.47 85.77 90.92"/><polygon class="cls-5" points="85.77 90.92 78.39 86.66 78.05 86.85 85.77 91.31 93.49 86.85 93.16 86.66 85.77 90.92"/><polygon class="cls-2" points="95.8 96.65 88.08 92.19 88.08 101.11 95.8 105.56 103.52 101.11 103.52 92.19 95.8 96.65"/><polygon class="cls-2" points="95.8 105.56 88.08 101.11 88.08 92.19 95.8 96.65 95.8 105.56"/><polygon class="cls-4" points="103.52 101.11 95.8 105.56 95.8 96.65 103.52 92.19 103.52 101.11"/><polygon class="cls-2" points="95.8 96.65 88.08 92.19 95.8 87.73 103.52 92.19 95.8 96.65"/><polygon class="cls-5" points="95.8 96.65 88.42 92.38 88.08 92.58 95.8 97.03 103.52 92.58 103.52 92.19 95.8 96.65"/><polygon class="cls-2" points="65.71 91.31 57.99 86.85 57.99 95.77 65.71 100.23 73.43 95.77 73.43 86.85 65.71 91.31"/><polygon class="cls-2" points="65.71 100.23 57.99 95.77 57.99 86.85 65.71 91.31 65.71 100.23"/><polygon class="cls-4" points="73.43 95.77 65.71 100.23 65.71 91.31 73.43 86.85 73.43 95.77"/><polygon class="cls-2" points="65.71 91.31 57.99 86.85 65.71 82.4 73.43 86.85 65.71 91.31"/><polygon class="cls-5" points="65.71 91.31 58.33 87.05 57.99 87.24 65.71 91.7 73.43 87.24 73.1 87.05 65.71 91.31"/><polygon class="cls-2" points="75.74 97.03 68.02 92.58 68.02 101.49 75.74 105.95 83.46 101.49 83.46 92.58 75.74 97.03"/><polygon class="cls-2" points="75.74 105.95 68.02 101.49 68.02 92.58 75.74 97.03 75.74 105.95"/><polygon class="cls-4" points="83.46 101.49 75.74 105.95 75.74 97.03 83.46 92.58 83.46 101.49"/><polygon class="cls-2" points="75.74 97.03 68.02 92.58 75.74 88.12 83.46 92.58 75.74 97.03"/><polygon class="cls-5" points="75.74 97.03 68.36 92.77 68.02 92.96 75.74 97.42 83.46 92.96 83.13 92.77 75.74 97.03"/><polygon class="cls-2" points="85.77 102.76 78.05 98.3 78.05 107.22 85.77 111.67 93.49 107.22 93.49 98.3 85.77 102.76"/><polygon class="cls-2" points="85.77 111.67 78.05 107.22 78.05 98.3 85.77 102.76 85.77 111.67"/><polygon class="cls-4" points="93.49 107.22 85.77 111.67 85.77 102.76 93.49 98.3 93.49 107.22"/><polygon class="cls-2" points="85.77 102.76 78.05 98.3 85.77 93.84 93.49 98.3 85.77 102.76"/><polygon class="cls-5" points="85.77 102.76 78.39 98.49 78.05 98.69 85.77 103.14 93.49 98.69 93.49 98.3 85.77 102.76"/><polygon class="cls-2" points="55.68 97.42 47.96 92.96 47.96 101.88 55.68 106.34 63.41 101.88 63.41 92.96 55.68 97.42"/><polygon class="cls-2" points="55.68 106.34 47.96 101.88 47.96 92.96 55.68 97.42 55.68 106.34"/><polygon class="cls-4" points="63.41 101.88 55.68 106.34 55.68 97.42 63.41 92.96 63.41 101.88"/><polygon class="cls-2" points="55.68 97.42 47.96 92.96 55.68 88.5 63.4 92.96 55.68 97.42"/><polygon class="cls-5" points="55.68 97.42 47.96 92.96 47.96 93.35 55.68 97.81 63.4 93.35 63.07 93.16 55.68 97.42"/><polygon class="cls-2" points="65.71 103.14 57.99 98.69 57.99 107.6 65.71 112.06 73.43 107.6 73.43 98.69 65.71 103.14"/><polygon class="cls-2" points="65.71 112.06 57.99 107.6 57.99 98.69 65.71 103.14 65.71 112.06"/><polygon class="cls-4" points="73.43 107.6 65.71 112.06 65.71 103.14 73.43 98.69 73.43 107.6"/><polygon class="cls-2" points="65.71 103.14 57.99 98.69 65.71 94.23 73.43 98.69 65.71 103.14"/><polygon class="cls-5" points="65.71 103.14 57.99 98.69 57.99 99.07 65.71 103.53 73.43 99.07 73.1 98.88 65.71 103.14"/><polygon class="cls-2" points="75.74 108.87 68.02 104.41 68.02 113.33 75.74 117.78 83.46 113.33 83.46 104.41 75.74 108.87"/><polygon class="cls-2" points="75.74 117.78 68.02 113.33 68.02 104.41 75.74 108.87 75.74 117.78"/><polygon class="cls-4" points="83.46 113.33 75.74 117.78 75.74 108.87 83.46 104.41 83.46 113.33"/><polygon class="cls-2" points="75.74 108.87 68.02 104.41 75.74 99.95 83.46 104.41 75.74 108.87"/><polygon class="cls-5" points="75.74 108.87 68.02 104.41 68.02 104.8 75.74 109.25 83.46 104.8 83.46 104.41 75.74 108.87"/><polygon class="cls-2" points="75.74 73.37 68.02 68.91 68.02 77.83 75.74 82.29 83.46 77.83 83.46 68.91 75.74 73.37"/><polygon class="cls-2" points="75.74 82.29 68.02 77.83 68.02 68.91 75.74 73.37 75.74 82.29"/><polygon class="cls-4" points="83.46 77.83 75.74 82.29 75.74 73.37 83.46 68.91 83.46 77.83"/><polygon class="cls-2" points="75.74 73.37 68.02 68.91 75.74 64.45 83.46 68.91 75.74 73.37"/><polygon class="cls-5" points="75.74 73.37 68.36 69.11 68.02 69.3 75.74 73.76 83.46 69.3 83.13 69.11 75.74 73.37"/><polygon class="cls-6" points="75.74 107.42 70.47 104.37 75.74 101.33 81.01 104.37 75.74 107.42"/><polygon class="cls-6" points="65.71 101.69 60.45 98.65 65.71 95.61 70.98 98.65 65.71 101.69"/><polygon class="cls-6" points="85.77 101.31 80.5 98.26 85.77 95.22 91.04 98.26 85.77 101.31"/><polygon class="cls-6" points="95.82 95.27 90.55 92.22 95.82 89.18 101.09 92.22 95.82 95.27"/><polygon class="cls-6" points="55.68 95.97 50.42 92.93 55.68 89.89 60.95 92.93 55.68 95.97"/><polygon class="cls-2" points="85.77 79.09 78.05 74.64 78.05 83.55 85.77 88.01 93.49 83.55 93.49 74.64 85.77 79.09"/><polygon class="cls-2" points="85.77 88.01 78.05 83.55 78.05 74.64 85.77 79.09 85.77 88.01"/><polygon class="cls-4" points="93.49 83.55 85.77 88.01 85.77 79.09 93.49 74.64 93.49 83.55"/><polygon class="cls-2" points="85.77 79.09 78.05 74.64 85.77 70.18 93.49 74.64 85.77 79.09"/><polygon class="cls-5" points="85.77 79.09 78.39 74.83 78.05 75.02 85.77 79.48 93.49 75.02 93.16 74.83 85.77 79.09"/><polygon class="cls-2" points="95.8 84.82 88.08 80.36 88.08 89.27 95.8 93.73 103.52 89.27 103.52 80.36 95.8 84.82"/><polygon class="cls-2" points="95.8 93.73 88.08 89.27 88.08 80.36 95.8 84.81 95.8 93.73"/><polygon class="cls-4" points="103.52 89.27 95.8 93.73 95.8 84.81 103.52 80.36 103.52 89.27"/><polygon class="cls-2" points="95.8 84.81 88.08 80.36 95.8 75.9 103.52 80.36 95.8 84.81"/><polygon class="cls-5" points="95.8 84.82 88.42 80.55 88.08 80.74 95.8 85.2 103.52 80.74 103.52 80.36 95.8 84.82"/><polygon class="cls-2" points="65.71 79.48 57.99 75.02 57.99 83.94 65.71 88.39 73.43 83.94 73.43 75.02 65.71 79.48"/><polygon class="cls-2" points="65.71 88.39 57.99 83.94 57.99 75.02 65.71 79.48 65.71 88.39"/><polygon class="cls-4" points="73.43 83.94 65.71 88.39 65.71 79.48 73.43 75.02 73.43 83.94"/><polygon class="cls-2" points="65.71 79.48 57.99 75.02 65.71 70.56 73.43 75.02 65.71 79.48"/><polygon class="cls-5" points="65.71 79.48 58.33 75.22 57.99 75.41 65.71 79.87 73.43 75.41 73.1 75.22 65.71 79.48"/><polygon class="cls-2" points="75.74 85.2 68.02 80.74 68.02 89.66 75.74 94.12 83.46 89.66 83.46 80.74 75.74 85.2"/><polygon class="cls-2" points="75.74 94.12 68.02 89.66 68.02 80.74 75.74 85.2 75.74 94.12"/><polygon class="cls-4" points="83.46 89.66 75.74 94.12 75.74 85.2 83.46 80.74 83.46 89.66"/><polygon class="cls-2" points="75.74 85.2 68.02 80.74 75.74 76.29 83.46 80.74 75.74 85.2"/><polygon class="cls-5" points="75.74 85.2 68.36 80.94 68.02 81.13 75.74 85.59 83.46 81.13 83.13 80.94 75.74 85.2"/><polygon class="cls-2" points="85.77 90.92 78.05 86.47 78.05 95.38 85.77 99.84 93.49 95.38 93.49 86.47 85.77 90.92"/><polygon class="cls-2" points="85.77 99.84 78.05 95.38 78.05 86.47 85.77 90.92 85.77 99.84"/><polygon class="cls-4" points="93.49 95.38 85.77 99.84 85.77 90.92 93.49 86.47 93.49 95.38"/><polygon class="cls-2" points="85.77 90.92 78.05 86.47 85.77 82.01 93.49 86.47 85.77 90.92"/><polygon class="cls-5" points="85.77 90.92 78.39 86.66 78.05 86.85 85.77 91.31 93.49 86.85 93.49 86.47 85.77 90.92"/><polygon class="cls-2" points="55.68 85.59 47.96 81.13 47.96 90.05 55.68 94.5 63.41 90.05 63.41 81.13 55.68 85.59"/><polygon class="cls-2" points="55.68 94.5 47.96 90.05 47.96 81.13 55.68 85.59 55.68 94.5"/><polygon class="cls-4" points="63.41 90.05 55.68 94.5 55.68 85.59 63.41 81.13 63.41 90.05"/><polygon class="cls-2" points="55.68 85.59 47.96 81.13 55.68 76.67 63.4 81.13 55.68 85.59"/><polygon class="cls-5" points="55.68 85.59 48.3 81.32 47.96 81.52 55.68 85.98 63.4 81.52 63.07 81.32 55.68 85.59"/><polygon class="cls-2" points="65.71 91.31 57.99 86.85 57.99 95.77 65.71 100.23 73.43 95.77 73.43 86.85 65.71 91.31"/><polygon class="cls-2" points="65.71 100.23 57.99 95.77 57.99 86.85 65.71 91.31 65.71 100.23"/><polygon class="cls-4" points="73.43 95.77 65.71 100.23 65.71 91.31 73.43 86.85 73.43 95.77"/><polygon class="cls-2" points="65.71 91.31 57.99 86.85 65.71 82.4 73.43 86.85 65.71 91.31"/><polygon class="cls-5" points="65.71 91.31 57.99 86.85 57.99 87.24 65.71 91.7 73.43 87.24 73.1 87.05 65.71 91.31"/><polygon class="cls-2" points="75.74 97.03 68.02 92.58 68.02 101.49 75.74 105.95 83.46 101.49 83.46 92.58 75.74 97.03"/><polygon class="cls-2" points="75.74 105.95 68.02 101.49 68.02 92.58 75.74 97.03 75.74 105.95"/><polygon class="cls-4" points="83.46 101.49 75.74 105.95 75.74 97.03 83.46 92.58 83.46 101.49"/><polygon class="cls-2" points="75.74 97.03 68.02 92.58 75.74 88.12 83.46 92.58 75.74 97.03"/><polygon class="cls-5" points="75.74 97.03 68.02 92.58 68.02 92.96 75.74 97.42 83.46 92.96 83.46 92.58 75.74 97.03"/><polygon class="cls-6" points="95.82 83.49 90.55 80.44 95.82 77.4 101.09 80.44 95.82 83.49"/><polygon class="cls-6" points="55.68 84.19 50.42 81.15 55.68 78.11 60.95 81.15 55.68 84.19"/><polygon class="cls-2" points="75.74 61.54 68.02 57.08 68.02 66 75.74 70.45 83.46 66 83.46 57.08 75.74 61.54"/><polygon class="cls-2" points="75.74 70.45 68.02 66 68.02 57.08 75.74 61.54 75.74 70.45"/><polygon class="cls-4" points="83.46 66 75.74 70.45 75.74 61.54 83.46 57.08 83.46 66"/><polygon class="cls-2" points="75.74 61.54 68.02 57.08 75.74 52.62 83.46 57.08 75.74 61.54"/><polygon class="cls-5" points="75.74 61.54 68.02 57.08 68.02 57.47 75.74 61.92 83.46 57.47 83.46 57.08 75.74 61.54"/><polygon class="cls-2" points="85.77 67.26 78.05 62.8 78.05 71.72 85.77 76.18 93.49 71.72 93.49 62.8 85.77 67.26"/><polygon class="cls-2" points="85.77 76.18 78.05 71.72 78.05 62.8 85.77 67.26 85.77 76.18"/><polygon class="cls-4" points="93.49 71.72 85.77 76.18 85.77 67.26 93.49 62.8 93.49 71.72"/><polygon class="cls-2" points="85.77 67.26 78.05 62.8 85.77 58.34 93.49 62.8 85.77 67.26"/><polygon class="cls-5" points="85.77 67.26 78.05 62.8 78.05 63.19 85.77 67.65 93.49 63.19 93.49 62.8 85.77 67.26"/><polygon class="cls-2" points="95.8 72.98 88.08 68.53 88.08 77.44 95.8 81.9 103.52 77.44 103.52 68.53 95.8 72.98"/><polygon class="cls-2" points="95.8 81.9 88.08 77.44 88.08 68.53 95.8 72.98 95.8 81.9"/><polygon class="cls-4" points="103.52 77.44 95.8 81.9 95.8 72.98 103.52 68.53 103.52 77.44"/><polygon class="cls-2" points="95.8 72.98 88.08 68.53 95.8 64.07 103.52 68.53 95.8 72.98"/><polygon class="cls-5" points="95.8 72.98 88.08 68.53 88.08 68.91 95.8 73.37 103.52 68.91 103.52 68.53 95.8 72.98"/><polygon class="cls-2" points="65.71 67.65 57.99 63.19 57.99 72.11 65.71 76.56 73.43 72.11 73.43 63.19 65.71 67.65"/><polygon class="cls-2" points="65.71 76.56 57.99 72.11 57.99 63.19 65.71 67.65 65.71 76.56"/><polygon class="cls-4" points="73.43 72.11 65.71 76.56 65.71 67.65 73.43 63.19 73.43 72.11"/><polygon class="cls-2" points="65.71 67.65 57.99 63.19 65.71 58.73 73.43 63.19 65.71 67.65"/><polygon class="cls-5" points="65.71 67.65 57.99 63.19 57.99 63.58 65.71 68.03 73.43 63.58 73.43 63.19 65.71 67.65"/><polygon class="cls-2" points="55.68 73.76 47.96 69.3 47.96 78.22 55.68 82.67 63.41 78.22 63.41 69.3 55.68 73.76"/><polygon class="cls-2" points="55.68 82.67 47.96 78.22 47.96 69.3 55.68 73.76 55.68 82.67"/><polygon class="cls-4" points="63.41 78.22 55.68 82.67 55.68 73.76 63.41 69.3 63.41 78.22"/><polygon class="cls-2" points="55.68 73.76 47.96 69.3 55.68 64.84 63.4 69.3 55.68 73.76"/><polygon class="cls-5" points="55.68 73.76 47.96 69.3 47.96 69.69 55.68 74.14 63.4 69.69 63.41 69.3 55.68 73.76"/></g><g class="cls-7"><path class="cls-8" d="M303.55,207l-5.39-3.11a3.7,3.7,0,0,1-1.67-2.9v-1.3a3.54,3.54,0,0,0-1.6-2.76l-1.13-.65.09-.14,1.12.65a3.68,3.68,0,0,1,1.68,2.9v1.3a3.5,3.5,0,0,0,1.59,2.76l5.39,3.11Z" transform="translate(-217.45 -110.45)"/><path class="cls-8" d="M305.64,205.75l-5.38-3.11a3.72,3.72,0,0,1-1.68-2.91v-1.3a3.54,3.54,0,0,0-1.6-2.76l-1.12-.65.08-.14,1.13.65a3.71,3.71,0,0,1,1.67,2.9v1.3a3.54,3.54,0,0,0,1.6,2.77l5.39,3.11Z" transform="translate(-217.45 -110.45)"/><path class="cls-8" d="M307.74,204.54l-5.39-3.11a3.71,3.71,0,0,1-1.67-2.9v-1.3a3.54,3.54,0,0,0-1.6-2.77l-1.12-.65.08-.14,1.12.65a3.72,3.72,0,0,1,1.68,2.91v1.3a3.53,3.53,0,0,0,1.59,2.76l5.39,3.11Z" transform="translate(-217.45 -110.45)"/><path class="cls-8" d="M309.83,203.33l-5.38-3.11a3.68,3.68,0,0,1-1.68-2.9V196a3.51,3.51,0,0,0-1.6-2.76l-1.12-.65.08-.14,1.13.65a3.7,3.7,0,0,1,1.67,2.9v1.3a3.53,3.53,0,0,0,1.6,2.76l5.39,3.11Z" transform="translate(-217.45 -110.45)"/><path class="cls-8" d="M311.93,202.13,306.54,199a3.73,3.73,0,0,1-1.67-2.91v-1.3a3.54,3.54,0,0,0-1.6-2.76l-1.12-.65.08-.14,1.12.65a3.7,3.7,0,0,1,1.68,2.9v1.3a3.53,3.53,0,0,0,1.59,2.77L312,202Z" transform="translate(-217.45 -110.45)"/><path class="cls-8" d="M314,200.92l-5.38-3.11A3.72,3.72,0,0,1,307,194.9v-1.29a3.54,3.54,0,0,0-1.6-2.77l-1.12-.65.08-.14,1.13.65a3.72,3.72,0,0,1,1.67,2.91v1.29a3.54,3.54,0,0,0,1.6,2.77l5.39,3.11Z" transform="translate(-217.45 -110.45)"/><path class="cls-8" d="M316.12,199.71l-5.39-3.11a3.7,3.7,0,0,1-1.67-2.9v-1.3a3.54,3.54,0,0,0-1.6-2.77l-1.12-.65.08-.14,1.12.65a3.72,3.72,0,0,1,1.68,2.91v1.3a3.53,3.53,0,0,0,1.59,2.76l5.39,3.11Z" transform="translate(-217.45 -110.45)"/><path class="cls-8" d="M318.21,198.5l-5.38-3.11a3.68,3.68,0,0,1-1.68-2.9v-1.3a3.5,3.5,0,0,0-1.6-2.76l-1.12-.65.08-.14,1.13.65a3.7,3.7,0,0,1,1.67,2.9v1.3a3.51,3.51,0,0,0,1.6,2.76l5.39,3.11Z" transform="translate(-217.45 -110.45)"/><path class="cls-8" d="M320.31,197.3l-5.39-3.11a3.73,3.73,0,0,1-1.67-2.91V190a3.54,3.54,0,0,0-1.6-2.76l-1.12-.65.08-.14,1.12.65a3.7,3.7,0,0,1,1.68,2.9v1.3a3.53,3.53,0,0,0,1.59,2.77l5.39,3.11Z" transform="translate(-217.45 -110.45)"/><path class="cls-8" d="M322.4,196.09,317,193a3.7,3.7,0,0,1-1.68-2.9v-1.3a3.53,3.53,0,0,0-1.59-2.77l-1.13-.65.08-.14,1.13.65a3.73,3.73,0,0,1,1.67,2.91v1.3a3.54,3.54,0,0,0,1.6,2.76l5.39,3.11Z" transform="translate(-217.45 -110.45)"/><path class="cls-8" d="M324.5,194.88l-5.39-3.11a3.7,3.7,0,0,1-1.67-2.9v-1.3a3.51,3.51,0,0,0-1.6-2.76l-1.12-.65.08-.14,1.12.64a3.72,3.72,0,0,1,1.68,2.91v1.3a3.53,3.53,0,0,0,1.59,2.76l5.39,3.11Z" transform="translate(-217.45 -110.45)"/><path class="cls-8" d="M326.59,193.68l-5.38-3.11a3.72,3.72,0,0,1-1.68-2.91v-1.3a3.53,3.53,0,0,0-1.59-2.76l-1.13-.65.08-.14,1.13.65a3.7,3.7,0,0,1,1.67,2.9v1.3a3.54,3.54,0,0,0,1.6,2.77l5.39,3.1Z" transform="translate(-217.45 -110.45)"/><path class="cls-8" d="M328.69,192.47l-5.39-3.11a3.73,3.73,0,0,1-1.67-2.91v-1.3a3.54,3.54,0,0,0-1.6-2.76l-1.12-.65.08-.14,1.12.65a3.7,3.7,0,0,1,1.68,2.9v1.3a3.53,3.53,0,0,0,1.59,2.77l5.39,3.11Z" transform="translate(-217.45 -110.45)"/><path class="cls-8" d="M330.78,191.26l-5.38-3.11a3.7,3.7,0,0,1-1.68-2.9V184a3.53,3.53,0,0,0-1.59-2.77l-1.13-.65.08-.14,1.13.65a3.73,3.73,0,0,1,1.67,2.91v1.3a3.54,3.54,0,0,0,1.6,2.76l5.39,3.11Z" transform="translate(-217.45 -110.45)"/><path class="cls-8" d="M332.88,190.05l-5.39-3.11a3.7,3.7,0,0,1-1.67-2.9v-1.3a3.51,3.51,0,0,0-1.6-2.76l-1.12-.65.08-.14,1.12.65a3.68,3.68,0,0,1,1.68,2.9V184a3.53,3.53,0,0,0,1.59,2.76l5.39,3.11Z" transform="translate(-217.45 -110.45)"/><path class="cls-8" d="M335,188.85l-5.38-3.11a3.72,3.72,0,0,1-1.68-2.91v-1.3a3.53,3.53,0,0,0-1.59-2.76l-1.13-.65.08-.14,1.13.65a3.71,3.71,0,0,1,1.67,2.9v1.3a3.54,3.54,0,0,0,1.6,2.77l5.39,3.11Z" transform="translate(-217.45 -110.45)"/><path class="cls-8" d="M337.07,187.64l-5.39-3.11a3.73,3.73,0,0,1-1.67-2.91v-1.29a3.54,3.54,0,0,0-1.6-2.77l-1.12-.65.08-.14,1.12.65a3.72,3.72,0,0,1,1.68,2.91v1.29a3.53,3.53,0,0,0,1.59,2.77l5.39,3.11Z" transform="translate(-217.45 -110.45)"/><path class="cls-8" d="M339.16,186.43l-5.38-3.11a3.68,3.68,0,0,1-1.68-2.9v-1.3a3.53,3.53,0,0,0-1.59-2.77l-1.13-.65.08-.14,1.13.65a3.73,3.73,0,0,1,1.67,2.91v1.3a3.54,3.54,0,0,0,1.6,2.76l5.39,3.11Z" transform="translate(-217.45 -110.45)"/><path class="cls-8" d="M341.26,185.22l-5.39-3.11a3.7,3.7,0,0,1-1.67-2.9v-1.3a3.53,3.53,0,0,0-1.6-2.76l-1.12-.65.08-.14,1.12.65a3.68,3.68,0,0,1,1.68,2.9v1.3A3.5,3.5,0,0,0,336,182l5.39,3.11Z" transform="translate(-217.45 -110.45)"/><path class="cls-8" d="M343.35,184,338,180.91a3.72,3.72,0,0,1-1.68-2.91v-1.3a3.53,3.53,0,0,0-1.59-2.76l-1.13-.65.08-.14,1.13.65a3.71,3.71,0,0,1,1.67,2.9V178a3.54,3.54,0,0,0,1.6,2.77l5.39,3.11Z" transform="translate(-217.45 -110.45)"/><path class="cls-8" d="M282.7,207l-.08-.14L288,203.7a3.51,3.51,0,0,0,1.6-2.76v-1.3a3.68,3.68,0,0,1,1.68-2.9l1.12-.65.08.14-1.12.65a3.54,3.54,0,0,0-1.6,2.76v1.3a3.68,3.68,0,0,1-1.68,2.9Z" transform="translate(-217.45 -110.45)"/><path class="cls-8" d="M280.6,205.75l-.08-.14,5.39-3.11a3.53,3.53,0,0,0,1.59-2.77v-1.3a3.73,3.73,0,0,1,1.68-2.9l1.13-.65.08.14-1.13.65a3.53,3.53,0,0,0-1.59,2.76v1.3a3.74,3.74,0,0,1-1.68,2.91Z" transform="translate(-217.45 -110.45)"/><path class="cls-8" d="M278.51,204.54l-.08-.14,5.38-3.11a3.54,3.54,0,0,0,1.6-2.76v-1.3a3.72,3.72,0,0,1,1.68-2.91l1.12-.65.08.14-1.12.65a3.54,3.54,0,0,0-1.6,2.77v1.3a3.7,3.7,0,0,1-1.68,2.9Z" transform="translate(-217.45 -110.45)"/><path class="cls-8" d="M276.41,203.33l-.08-.14,5.39-3.11a3.52,3.52,0,0,0,1.59-2.76V196a3.71,3.71,0,0,1,1.68-2.9l1.13-.65.08.14-1.13.65a3.5,3.5,0,0,0-1.59,2.76v1.3a3.71,3.71,0,0,1-1.68,2.9Z" transform="translate(-217.45 -110.45)"/><path class="cls-8" d="M274.32,202.13l-.08-.14,5.38-3.11a3.54,3.54,0,0,0,1.6-2.77v-1.3a3.7,3.7,0,0,1,1.68-2.9l1.12-.65.08.14-1.12.65a3.54,3.54,0,0,0-1.6,2.76v1.3A3.72,3.72,0,0,1,279.7,199Z" transform="translate(-217.45 -110.45)"/><path class="cls-8" d="M272.22,200.92l-.08-.14,5.39-3.11a3.53,3.53,0,0,0,1.59-2.77v-1.29a3.73,3.73,0,0,1,1.68-2.91l1.13-.65.08.14-1.13.65a3.53,3.53,0,0,0-1.59,2.77v1.29a3.74,3.74,0,0,1-1.68,2.91Z" transform="translate(-217.45 -110.45)"/><path class="cls-8" d="M270.13,199.71l-.08-.14,5.38-3.11a3.54,3.54,0,0,0,1.6-2.76v-1.3a3.72,3.72,0,0,1,1.68-2.91l1.12-.65.08.14-1.12.65a3.54,3.54,0,0,0-1.6,2.77v1.3a3.68,3.68,0,0,1-1.68,2.9Z" transform="translate(-217.45 -110.45)"/><path class="cls-8" d="M268,198.5l-.08-.14,5.39-3.11a3.5,3.5,0,0,0,1.59-2.76v-1.3a3.71,3.71,0,0,1,1.68-2.9l1.13-.65.08.14-1.13.65a3.52,3.52,0,0,0-1.59,2.76v1.3a3.71,3.71,0,0,1-1.68,2.9Z" transform="translate(-217.45 -110.45)"/><path class="cls-8" d="M265.94,197.3l-.08-.14,5.38-3.11a3.54,3.54,0,0,0,1.6-2.77V190a3.7,3.7,0,0,1,1.68-2.9l1.12-.65.08.14-1.12.65A3.54,3.54,0,0,0,273,190v1.3a3.72,3.72,0,0,1-1.68,2.91Z" transform="translate(-217.45 -110.45)"/><path class="cls-8" d="M263.84,196.09l-.08-.14,5.39-3.11a3.53,3.53,0,0,0,1.59-2.76v-1.3a3.74,3.74,0,0,1,1.68-2.91l1.13-.65.08.14-1.13.65a3.53,3.53,0,0,0-1.59,2.77v1.3a3.73,3.73,0,0,1-1.68,2.9Z" transform="translate(-217.45 -110.45)"/><path class="cls-8" d="M261.75,194.88l-.08-.14,5.38-3.11a3.54,3.54,0,0,0,1.6-2.76v-1.3a3.72,3.72,0,0,1,1.68-2.91l1.12-.64.08.14-1.12.65a3.51,3.51,0,0,0-1.6,2.76v1.3a3.68,3.68,0,0,1-1.68,2.9Z" transform="translate(-217.45 -110.45)"/><path class="cls-8" d="M259.65,193.68l-.08-.15,5.39-3.1a3.53,3.53,0,0,0,1.59-2.77v-1.3a3.71,3.71,0,0,1,1.68-2.9l1.13-.65.08.14-1.13.65a3.53,3.53,0,0,0-1.59,2.76v1.3a3.74,3.74,0,0,1-1.68,2.91Z" transform="translate(-217.45 -110.45)"/><path class="cls-8" d="M257.56,192.47l-.08-.14,5.38-3.11a3.54,3.54,0,0,0,1.6-2.77v-1.3a3.7,3.7,0,0,1,1.68-2.9l1.12-.65.08.14-1.12.65a3.54,3.54,0,0,0-1.6,2.76v1.3a3.72,3.72,0,0,1-1.68,2.91Z" transform="translate(-217.45 -110.45)"/><path class="cls-8" d="M255.46,191.26l-.08-.14,5.39-3.11a3.53,3.53,0,0,0,1.59-2.76V184A3.74,3.74,0,0,1,264,181l1.13-.65.08.14-1.13.65a3.53,3.53,0,0,0-1.59,2.77v1.3a3.73,3.73,0,0,1-1.68,2.9Z" transform="translate(-217.45 -110.45)"/><path class="cls-8" d="M253.37,190.05l-.08-.14,5.38-3.11a3.54,3.54,0,0,0,1.6-2.76v-1.3a3.68,3.68,0,0,1,1.68-2.9l1.12-.65.08.14L262,180a3.51,3.51,0,0,0-1.6,2.76V184a3.68,3.68,0,0,1-1.68,2.9Z" transform="translate(-217.45 -110.45)"/><path class="cls-8" d="M251.27,188.85l-.08-.14,5.39-3.11a3.53,3.53,0,0,0,1.59-2.77v-1.3a3.73,3.73,0,0,1,1.68-2.9L261,178l.08.14-1.13.65a3.53,3.53,0,0,0-1.59,2.76v1.3a3.74,3.74,0,0,1-1.68,2.91Z" transform="translate(-217.45 -110.45)"/><path class="cls-8" d="M249.18,187.64l-.08-.14,5.38-3.11a3.54,3.54,0,0,0,1.6-2.77v-1.29a3.72,3.72,0,0,1,1.68-2.91l1.12-.65.08.14-1.12.65a3.54,3.54,0,0,0-1.6,2.77v1.29a3.72,3.72,0,0,1-1.68,2.91Z" transform="translate(-217.45 -110.45)"/><path class="cls-8" d="M247.08,186.43l-.08-.14,5.39-3.11a3.53,3.53,0,0,0,1.59-2.76v-1.3a3.74,3.74,0,0,1,1.68-2.91l1.13-.65.08.14-1.13.65a3.53,3.53,0,0,0-1.59,2.77v1.3a3.73,3.73,0,0,1-1.68,2.9Z" transform="translate(-217.45 -110.45)"/><path class="cls-8" d="M245,185.22l-.08-.14,5.38-3.11a3.51,3.51,0,0,0,1.6-2.76v-1.3a3.68,3.68,0,0,1,1.68-2.9l1.12-.65.08.14-1.12.65a3.53,3.53,0,0,0-1.6,2.76v1.3a3.68,3.68,0,0,1-1.68,2.9Z" transform="translate(-217.45 -110.45)"/><path class="cls-8" d="M242.89,184l-.08-.14,5.39-3.11a3.53,3.53,0,0,0,1.59-2.77v-1.3a3.73,3.73,0,0,1,1.68-2.9l1.13-.65.08.14-1.13.65A3.53,3.53,0,0,0,250,176.7V178a3.74,3.74,0,0,1-1.68,2.91Z" transform="translate(-217.45 -110.45)"/><polygon class="cls-9" points="117.13 64.76 117.13 69.54 75.74 93.44 34.35 69.54 34.35 64.76 117.13 64.76"/><polygon class="cls-10" points="75.74 88.66 34.35 64.76 75.74 40.86 117.13 64.76 75.74 88.66"/><polygon class="cls-5" points="75.74 88.1 34.84 64.48 34.35 64.76 75.74 88.66 117.13 64.76 116.65 64.48 75.74 88.1"/></g><path class="cls-8" d="M288.89,144.49a1.53,1.53,0,0,1-.77-.24l-5.39-3.11.08-.14,5.39,3.11a.91.91,0,0,0,1.51-.87v-1.3a1.23,1.23,0,0,1,.52-1.13,1.21,1.21,0,0,1,1.24.11l1.12.65-.08.14-1.12-.65a1.1,1.1,0,0,0-1.08-.11,1.07,1.07,0,0,0-.44,1v1.3a1.23,1.23,0,0,1-.52,1.13A.9.9,0,0,1,288.89,144.49Z" transform="translate(-217.45 -110.45)"/><path class="cls-8" d="M286.79,145.69a1.61,1.61,0,0,1-.77-.23l-5.39-3.11.09-.14,5.38,3.11a1.11,1.11,0,0,0,1.08.11,1.07,1.07,0,0,0,.44-1v-1.3a1.23,1.23,0,0,1,.52-1.13,1.22,1.22,0,0,1,1.23.12l1.13.65-.08.14-1.13-.65a.91.91,0,0,0-1.51.87v1.3a1.23,1.23,0,0,1-.52,1.13A.94.94,0,0,1,286.79,145.69Z" transform="translate(-217.45 -110.45)"/><path class="cls-8" d="M284.7,146.9a1.53,1.53,0,0,1-.77-.24l-5.39-3.11.08-.14,5.39,3.11a.91.91,0,0,0,1.51-.87v-1.3a1.23,1.23,0,0,1,.52-1.13,1.21,1.21,0,0,1,1.24.11l1.12.65-.08.14-1.12-.65a.92.92,0,0,0-1.52.88v1.3a1.23,1.23,0,0,1-.52,1.13A.9.9,0,0,1,284.7,146.9Z" transform="translate(-217.45 -110.45)"/><path class="cls-8" d="M282.6,148.1a1.61,1.61,0,0,1-.77-.23l-5.39-3.11.09-.14,5.38,3.11a1.1,1.1,0,0,0,1.08.11,1.07,1.07,0,0,0,.44-1v-1.3a1.23,1.23,0,0,1,.52-1.13,1.22,1.22,0,0,1,1.23.12l1.13.65-.08.14-1.13-.65a.91.91,0,0,0-1.51.87v1.3a1.23,1.23,0,0,1-.52,1.13A.94.94,0,0,1,282.6,148.1Z" transform="translate(-217.45 -110.45)"/><path class="cls-8" d="M280.51,149.31a1.53,1.53,0,0,1-.77-.24L274.35,146l.08-.14,5.39,3.11a.91.91,0,0,0,1.51-.87v-1.3a1.08,1.08,0,0,1,1.76-1l1.12.65-.08.14-1.12-.65a1.1,1.1,0,0,0-1.08-.11,1.07,1.07,0,0,0-.44,1v1.3a1.23,1.23,0,0,1-.52,1.13A.9.9,0,0,1,280.51,149.31Z" transform="translate(-217.45 -110.45)"/><path class="cls-8" d="M278.41,150.51a1.61,1.61,0,0,1-.77-.23l-5.39-3.11.09-.14,5.38,3.11a1.11,1.11,0,0,0,1.08.11,1.07,1.07,0,0,0,.44-1V148a1.23,1.23,0,0,1,.52-1.13A1.22,1.22,0,0,1,281,147l1.13.65-.08.14-1.13-.65a.91.91,0,0,0-1.51.87v1.3a1.23,1.23,0,0,1-.52,1.13A.94.94,0,0,1,278.41,150.51Z" transform="translate(-217.45 -110.45)"/><path class="cls-8" d="M276.32,151.72a1.53,1.53,0,0,1-.77-.24l-5.39-3.11.08-.14,5.39,3.11a.91.91,0,0,0,1.51-.87v-1.3a1.08,1.08,0,0,1,1.76-1l1.12.65-.08.14-1.12-.65a1.1,1.1,0,0,0-1.08-.11,1.07,1.07,0,0,0-.44,1v1.3a1.23,1.23,0,0,1-.52,1.13A.9.9,0,0,1,276.32,151.72Z" transform="translate(-217.45 -110.45)"/><path class="cls-8" d="M274.22,152.92a1.61,1.61,0,0,1-.77-.23l-5.39-3.11.09-.14,5.38,3.11a.92.92,0,0,0,1.52-.88v-1.3a1.23,1.23,0,0,1,.52-1.13,1.22,1.22,0,0,1,1.23.12l1.13.65-.08.14-1.13-.65a.91.91,0,0,0-1.51.87v1.3a1.23,1.23,0,0,1-.52,1.13A.94.94,0,0,1,274.22,152.92Z" transform="translate(-217.45 -110.45)"/><path class="cls-8" d="M272.13,154.13a1.53,1.53,0,0,1-.77-.24L266,150.78l.08-.14,5.39,3.11a.91.91,0,0,0,1.51-.87v-1.3a1.23,1.23,0,0,1,.52-1.13,1.25,1.25,0,0,1,1.24.11l1.12.65-.08.14-1.12-.65a1.1,1.1,0,0,0-1.08-.11,1.07,1.07,0,0,0-.44,1v1.3a1.23,1.23,0,0,1-.52,1.13A.9.9,0,0,1,272.13,154.13Z" transform="translate(-217.45 -110.45)"/><path class="cls-8" d="M270,155.33a1.61,1.61,0,0,1-.77-.23L263.87,152l.09-.14,5.38,3.11a.92.92,0,0,0,1.52-.88v-1.3a1.23,1.23,0,0,1,.52-1.13,1.22,1.22,0,0,1,1.23.12l1.13.65-.08.14-1.13-.65a.91.91,0,0,0-1.51.87v1.3a1.23,1.23,0,0,1-.52,1.13A.94.94,0,0,1,270,155.33Z" transform="translate(-217.45 -110.45)"/><path class="cls-8" d="M267.94,156.54a1.53,1.53,0,0,1-.77-.24l-5.39-3.11.08-.14,5.39,3.11a.91.91,0,0,0,1.51-.87V154a1.23,1.23,0,0,1,.52-1.13,1.25,1.25,0,0,1,1.24.11l1.12.65-.08.14-1.12-.65a1.1,1.1,0,0,0-1.08-.11,1.07,1.07,0,0,0-.44,1v1.3a1.23,1.23,0,0,1-.52,1.13A.9.9,0,0,1,267.94,156.54Z" transform="translate(-217.45 -110.45)"/><path class="cls-8" d="M265.84,157.74a1.61,1.61,0,0,1-.77-.23l-5.39-3.11.09-.14,5.38,3.11a.92.92,0,0,0,1.52-.88v-1.3a1.23,1.23,0,0,1,.52-1.13,1.22,1.22,0,0,1,1.23.12l1.13.65-.08.14-1.13-.65a.91.91,0,0,0-1.51.87v1.3a1.23,1.23,0,0,1-.52,1.13A.94.94,0,0,1,265.84,157.74Z" transform="translate(-217.45 -110.45)"/><path class="cls-8" d="M263.75,159a1.53,1.53,0,0,1-.77-.24l-5.39-3.11.08-.14,5.39,3.11a.91.91,0,0,0,1.51-.87v-1.3a1.23,1.23,0,0,1,.52-1.13,1.25,1.25,0,0,1,1.24.11l1.12.65-.08.14-1.12-.65a1.1,1.1,0,0,0-1.08-.11,1.07,1.07,0,0,0-.44,1v1.3a1.23,1.23,0,0,1-.52,1.13A.9.9,0,0,1,263.75,159Z" transform="translate(-217.45 -110.45)"/><path class="cls-8" d="M261.65,160.15a1.61,1.61,0,0,1-.77-.23l-5.39-3.11.09-.14,5.38,3.11a.92.92,0,0,0,1.52-.88v-1.3a1.23,1.23,0,0,1,.52-1.13,1.22,1.22,0,0,1,1.23.12l1.13.65-.08.14-1.13-.65a.92.92,0,0,0-1.51.87v1.3a1.23,1.23,0,0,1-.52,1.13A.94.94,0,0,1,261.65,160.15Z" transform="translate(-217.45 -110.45)"/><path class="cls-8" d="M259.56,161.36a1.53,1.53,0,0,1-.77-.24L253.4,158l.08-.14,5.39,3.11a.91.91,0,0,0,1.51-.87v-1.3a1.23,1.23,0,0,1,.52-1.13,1.25,1.25,0,0,1,1.24.11l1.12.65-.08.14-1.12-.65a1.1,1.1,0,0,0-1.08-.11,1.07,1.07,0,0,0-.44,1v1.3a1.23,1.23,0,0,1-.52,1.13A.9.9,0,0,1,259.56,161.36Z" transform="translate(-217.45 -110.45)"/><path class="cls-8" d="M257.46,162.56a1.61,1.61,0,0,1-.77-.23l-5.39-3.11.09-.14,5.38,3.11a1.06,1.06,0,0,0,1.08.11,1.07,1.07,0,0,0,.44-1V160a1.23,1.23,0,0,1,.52-1.13A1.22,1.22,0,0,1,260,159l1.13.65-.08.14-1.13-.65a.92.92,0,0,0-1.51.87v1.3a1.23,1.23,0,0,1-.52,1.13A.94.94,0,0,1,257.46,162.56Z" transform="translate(-217.45 -110.45)"/><path class="cls-8" d="M255.37,163.77a1.53,1.53,0,0,1-.77-.24l-5.39-3.11.08-.14,5.39,3.11a.91.91,0,0,0,1.51-.87v-1.3a1.23,1.23,0,0,1,.52-1.13,1.25,1.25,0,0,1,1.24.11l1.12.65L259,161l-1.12-.65a1.1,1.1,0,0,0-1.08-.11,1.08,1.08,0,0,0-.44,1v1.3a1.23,1.23,0,0,1-.52,1.13A.9.9,0,0,1,255.37,163.77Z" transform="translate(-217.45 -110.45)"/><path class="cls-8" d="M253.27,165a1.51,1.51,0,0,1-.77-.23l-5.39-3.11.09-.14,5.38,3.11a1.06,1.06,0,0,0,1.08.11,1.07,1.07,0,0,0,.44-1v-1.3a1.07,1.07,0,0,1,1.75-1l1.13.65-.08.14-1.13-.65a.92.92,0,0,0-1.51.87v1.3a1.23,1.23,0,0,1-.52,1.13A.94.94,0,0,1,253.27,165Z" transform="translate(-217.45 -110.45)"/><path class="cls-8" d="M251.18,166.18a1.53,1.53,0,0,1-.77-.24L245,162.83l.08-.14,5.39,3.11a.91.91,0,0,0,1.51-.87v-1.3a1.23,1.23,0,0,1,.52-1.13,1.25,1.25,0,0,1,1.24.11l1.12.65-.08.14-1.12-.64a.92.92,0,0,0-1.52.87v1.3a1.23,1.23,0,0,1-.52,1.13A.9.9,0,0,1,251.18,166.18Z" transform="translate(-217.45 -110.45)"/><path class="cls-8" d="M249.08,167.38a1.51,1.51,0,0,1-.77-.23L242.92,164l.09-.14,5.38,3.11a1.06,1.06,0,0,0,1.08.11,1.07,1.07,0,0,0,.44-1v-1.29a1.21,1.21,0,0,1,.52-1.13,1.19,1.19,0,0,1,1.23.11l1.13.65-.08.14-1.13-.65a1,1,0,0,0-1.07-.11,1.05,1.05,0,0,0-.44,1v1.29a1.23,1.23,0,0,1-.52,1.13A.94.94,0,0,1,249.08,167.38Z" transform="translate(-217.45 -110.45)"/><path class="cls-8" d="M297.47,144.58a.88.88,0,0,1-.46-.12,1.21,1.21,0,0,1-.52-1.13V142a1.07,1.07,0,0,0-.44-1,1.06,1.06,0,0,0-1.08.11l-1.12.65-.09-.14,1.13-.65a1.21,1.21,0,0,1,1.24-.11,1.23,1.23,0,0,1,.52,1.13v1.29a1.05,1.05,0,0,0,.44,1,1,1,0,0,0,1.07-.11l5.39-3.11.08.14-5.39,3.11A1.51,1.51,0,0,1,297.47,144.58Z" transform="translate(-217.45 -110.45)"/><path class="cls-8" d="M299.57,145.79a.94.94,0,0,1-.47-.12,1.24,1.24,0,0,1-.52-1.13v-1.3a1.08,1.08,0,0,0-.44-1,1.07,1.07,0,0,0-1.07.12l-1.13.65-.08-.14,1.12-.65a1.24,1.24,0,0,1,1.24-.12,1.22,1.22,0,0,1,.52,1.13v1.3a.92.92,0,0,0,1.52.87l5.38-3.11.09.14-5.39,3.11A1.53,1.53,0,0,1,299.57,145.79Z" transform="translate(-217.45 -110.45)"/><path class="cls-8" d="M301.66,147a.88.88,0,0,1-.46-.12,1.21,1.21,0,0,1-.52-1.13v-1.29a1.07,1.07,0,0,0-.44-1,1.06,1.06,0,0,0-1.08.11l-1.12.65-.08-.14,1.12-.65a1.21,1.21,0,0,1,1.24-.11,1.23,1.23,0,0,1,.52,1.13v1.29a1.05,1.05,0,0,0,.44,1,1,1,0,0,0,1.07-.11l5.39-3.11.08.14-5.39,3.11A1.51,1.51,0,0,1,301.66,147Z" transform="translate(-217.45 -110.45)"/><path class="cls-8" d="M303.76,148.2a.94.94,0,0,1-.47-.12,1.24,1.24,0,0,1-.52-1.13v-1.3a1.1,1.1,0,0,0-.44-1,1.07,1.07,0,0,0-1.07.12l-1.13.65-.08-.14,1.12-.65a1.24,1.24,0,0,1,1.24-.12,1.22,1.22,0,0,1,.52,1.13V147a.92.92,0,0,0,1.52.87l5.38-3.11.09.14L304.53,148A1.53,1.53,0,0,1,303.76,148.2Z" transform="translate(-217.45 -110.45)"/><path class="cls-8" d="M305.85,149.41a.82.82,0,0,1-.46-.13,1.21,1.21,0,0,1-.52-1.13v-1.29a.92.92,0,0,0-1.52-.88l-1.12.65-.08-.14,1.12-.65a1.21,1.21,0,0,1,1.24-.11,1.23,1.23,0,0,1,.52,1.13v1.29a1.05,1.05,0,0,0,.44,1,1,1,0,0,0,1.07-.11l5.39-3.11.08.14-5.39,3.11A1.53,1.53,0,0,1,305.85,149.41Z" transform="translate(-217.45 -110.45)"/><path class="cls-8" d="M308,150.61a.94.94,0,0,1-.47-.12,1.23,1.23,0,0,1-.52-1.13v-1.3a.91.91,0,0,0-1.51-.87l-1.13.65-.08-.14,1.12-.65a1.07,1.07,0,0,1,1.76,1v1.3a.92.92,0,0,0,1.52.87l5.38-3.1.09.14-5.39,3.1A1.53,1.53,0,0,1,308,150.61Z" transform="translate(-217.45 -110.45)"/><path class="cls-8" d="M310,151.82a.88.88,0,0,1-.46-.12,1.23,1.23,0,0,1-.52-1.13v-1.3a.92.92,0,0,0-1.52-.88l-1.12.65-.08-.14,1.12-.65a1.21,1.21,0,0,1,1.24-.11,1.23,1.23,0,0,1,.52,1.13v1.3a.92.92,0,0,0,1.51.87l5.39-3.11.08.14-5.39,3.11A1.53,1.53,0,0,1,310,151.82Z" transform="translate(-217.45 -110.45)"/><path class="cls-8" d="M312.14,153a.94.94,0,0,1-.47-.12,1.23,1.23,0,0,1-.52-1.13v-1.3a.91.91,0,0,0-1.51-.87l-1.13.65-.08-.14,1.12-.65a1.07,1.07,0,0,1,1.76,1v1.3a1.07,1.07,0,0,0,.44,1,1.11,1.11,0,0,0,1.08-.11l5.38-3.11.09.14-5.39,3.11A1.61,1.61,0,0,1,312.14,153Z" transform="translate(-217.45 -110.45)"/><path class="cls-8" d="M314.23,154.23a.88.88,0,0,1-.46-.12,1.23,1.23,0,0,1-.52-1.13v-1.3a.92.92,0,0,0-1.52-.88l-1.12.65-.08-.14,1.12-.65a1.21,1.21,0,0,1,1.24-.11,1.23,1.23,0,0,1,.52,1.13V153a.92.92,0,0,0,1.51.87l5.39-3.11.08.14L315,154A1.53,1.53,0,0,1,314.23,154.23Z" transform="translate(-217.45 -110.45)"/><path class="cls-8" d="M316.33,155.43a.94.94,0,0,1-.47-.12,1.23,1.23,0,0,1-.52-1.13v-1.3a.91.91,0,0,0-1.51-.87l-1.13.65-.08-.14,1.13-.65a1.22,1.22,0,0,1,1.23-.12,1.23,1.23,0,0,1,.52,1.13v1.3a1.07,1.07,0,0,0,.44,1,1.11,1.11,0,0,0,1.08-.11L322.4,152l.09.14-5.39,3.11A1.61,1.61,0,0,1,316.33,155.43Z" transform="translate(-217.45 -110.45)"/><path class="cls-8" d="M318.42,156.64a.88.88,0,0,1-.46-.12,1.23,1.23,0,0,1-.52-1.13v-1.3a.92.92,0,0,0-1.52-.88l-1.12.65-.08-.14,1.12-.65a1.21,1.21,0,0,1,1.24-.11,1.23,1.23,0,0,1,.52,1.13v1.3a.92.92,0,0,0,1.51.87l5.39-3.11.08.14-5.39,3.11A1.53,1.53,0,0,1,318.42,156.64Z" transform="translate(-217.45 -110.45)"/><path class="cls-8" d="M320.52,157.84a.94.94,0,0,1-.47-.12,1.23,1.23,0,0,1-.52-1.13v-1.3a.91.91,0,0,0-1.51-.87l-1.13.65-.08-.14,1.13-.65a1.22,1.22,0,0,1,1.23-.12,1.23,1.23,0,0,1,.52,1.13v1.3a1.07,1.07,0,0,0,.44,1,1.1,1.1,0,0,0,1.08-.11l5.38-3.11.09.14-5.39,3.11A1.61,1.61,0,0,1,320.52,157.84Z" transform="translate(-217.45 -110.45)"/><path class="cls-8" d="M322.61,159.05a.9.9,0,0,1-.46-.12,1.23,1.23,0,0,1-.52-1.13v-1.3a1.07,1.07,0,0,0-.44-1,1.1,1.1,0,0,0-1.08.11l-1.12.65-.08-.14,1.12-.65a1.21,1.21,0,0,1,1.24-.11,1.23,1.23,0,0,1,.52,1.13v1.3a.91.91,0,0,0,1.51.87l5.39-3.11.08.14-5.39,3.11A1.53,1.53,0,0,1,322.61,159.05Z" transform="translate(-217.45 -110.45)"/><path class="cls-8" d="M324.71,160.25a.94.94,0,0,1-.47-.12,1.23,1.23,0,0,1-.52-1.13v-1.3a.91.91,0,0,0-1.51-.87l-1.13.65-.08-.14,1.13-.65a1.22,1.22,0,0,1,1.23-.12,1.23,1.23,0,0,1,.52,1.13V159a1.07,1.07,0,0,0,.44,1,1.11,1.11,0,0,0,1.08-.11l5.38-3.11.09.14L325.48,160A1.61,1.61,0,0,1,324.71,160.25Z" transform="translate(-217.45 -110.45)"/><path class="cls-8" d="M326.8,161.46a.9.9,0,0,1-.46-.12,1.23,1.23,0,0,1-.52-1.13v-1.3a1.07,1.07,0,0,0-.44-1,1.11,1.11,0,0,0-1.08.11l-1.12.65-.08-.14,1.12-.65a1.21,1.21,0,0,1,1.24-.11,1.23,1.23,0,0,1,.52,1.13v1.3a.91.91,0,0,0,1.51.87l5.39-3.11.08.14-5.39,3.11A1.53,1.53,0,0,1,326.8,161.46Z" transform="translate(-217.45 -110.45)"/><path class="cls-8" d="M328.9,162.66a.94.94,0,0,1-.47-.12,1.23,1.23,0,0,1-.52-1.13v-1.3a.91.91,0,0,0-1.51-.87l-1.13.65-.08-.14,1.13-.65a1.22,1.22,0,0,1,1.23-.12,1.23,1.23,0,0,1,.52,1.13v1.3a1.07,1.07,0,0,0,.44,1,1.11,1.11,0,0,0,1.08-.11l5.38-3.11.09.14-5.39,3.11A1.61,1.61,0,0,1,328.9,162.66Z" transform="translate(-217.45 -110.45)"/><path class="cls-8" d="M331,163.87a.9.9,0,0,1-.46-.12,1.23,1.23,0,0,1-.52-1.13v-1.3a1.07,1.07,0,0,0-.44-1,1.1,1.1,0,0,0-1.08.11l-1.12.65-.08-.14,1.12-.65a1.08,1.08,0,0,1,1.76,1v1.3a.91.91,0,0,0,1.51.87l5.39-3.11.08.14-5.39,3.11A1.53,1.53,0,0,1,331,163.87Z" transform="translate(-217.45 -110.45)"/><path class="cls-8" d="M333.09,165.07a.94.94,0,0,1-.47-.12,1.23,1.23,0,0,1-.52-1.13v-1.3a.91.91,0,0,0-1.51-.87l-1.13.65-.08-.14,1.13-.65a1.22,1.22,0,0,1,1.23-.12,1.23,1.23,0,0,1,.52,1.13v1.3a1.07,1.07,0,0,0,.44,1,1.11,1.11,0,0,0,1.08-.11l5.38-3.11.09.14-5.39,3.11A1.61,1.61,0,0,1,333.09,165.07Z" transform="translate(-217.45 -110.45)"/><path class="cls-8" d="M335.18,166.28a.9.9,0,0,1-.46-.12,1.23,1.23,0,0,1-.52-1.13v-1.3a1.07,1.07,0,0,0-.44-1,1.1,1.1,0,0,0-1.08.11l-1.12.65-.08-.14,1.12-.65a1.25,1.25,0,0,1,1.24-.11,1.23,1.23,0,0,1,.52,1.13V165a.91.91,0,0,0,1.51.87l5.39-3.11.08.14L336,166A1.53,1.53,0,0,1,335.18,166.28Z" transform="translate(-217.45 -110.45)"/><path class="cls-8" d="M337.28,167.48a.94.94,0,0,1-.47-.12,1.23,1.23,0,0,1-.52-1.13v-1.3a.91.91,0,0,0-1.51-.87l-1.13.65-.08-.14,1.13-.65a1.22,1.22,0,0,1,1.23-.12,1.23,1.23,0,0,1,.52,1.13v1.3a.92.92,0,0,0,1.52.88l5.38-3.11.09.14-5.39,3.11A1.61,1.61,0,0,1,337.28,167.48Z" transform="translate(-217.45 -110.45)"/><polygon class="cls-11" points="117.13 54.65 117.13 59.44 75.74 83.33 34.35 59.44 34.35 54.65 117.13 54.65"/><polygon class="cls-10" points="75.74 78.55 34.35 54.65 75.74 30.76 117.13 54.65 75.74 78.55"/><polygon class="cls-5" points="75.74 77.99 34.84 54.37 34.35 54.65 75.74 78.55 117.13 54.65 116.65 54.37 75.74 77.99"/><polygon class="cls-12" points="75.74 73.04 43.91 54.66 75.74 36.28 107.58 54.66 75.74 73.04"/><polygon class="cls-13" points="75.74 73.04 43.91 54.66 75.74 36.28 107.58 54.66 75.74 73.04"/><polygon class="cls-14" points="75.74 31.64 107.58 50.02 107.58 54.66 75.74 36.28 75.74 31.64"/><polygon class="cls-15" points="75.74 36.28 43.91 54.66 43.91 50.02 75.74 31.64 75.74 36.28"/><polygon class="cls-16" points="75.74 68.4 43.91 50.02 75.74 31.64 107.58 50.02 75.74 68.4"/><polygon class="cls-17" points="75.74 57.37 63.02 50.02 75.74 42.68 88.46 50.02 75.74 57.37"/><polygon class="cls-17" points="75.74 43.36 87.88 50.36 88.46 50.02 75.74 42.68 63.02 50.02 63.61 50.36 75.74 43.36"/><polygon class="cls-18" points="75.74 68.4 75.74 73.04 107.58 54.66 107.58 50.02 75.74 68.4"/><polygon class="cls-19" points="43.91 50.02 43.91 54.66 75.74 73.04 75.74 68.4 43.91 50.02"/><polygon class="cls-20" points="75.74 67.9 44.34 49.77 43.91 50.02 75.74 68.4 107.58 50.02 107.14 49.77 75.74 67.9"/><path class="cls-8" d="M303.55,199.4l-5.39-3.11a3.7,3.7,0,0,1-1.67-2.9v-1.3a3.51,3.51,0,0,0-1.6-2.76l-1.13-.65.09-.14,1.12.65a3.68,3.68,0,0,1,1.68,2.9v1.3a3.5,3.5,0,0,0,1.59,2.76l5.39,3.11Z" transform="translate(-217.45 -110.45)"/><path class="cls-8" d="M305.64,198.2l-5.38-3.11a3.72,3.72,0,0,1-1.68-2.91v-1.3a3.54,3.54,0,0,0-1.6-2.76l-1.12-.65.08-.14,1.13.65a3.71,3.71,0,0,1,1.67,2.9v1.3a3.54,3.54,0,0,0,1.6,2.77l5.39,3.11Z" transform="translate(-217.45 -110.45)"/><path class="cls-8" d="M307.74,197l-5.39-3.11a3.72,3.72,0,0,1-1.67-2.91v-1.29a3.54,3.54,0,0,0-1.6-2.77l-1.12-.65.08-.14,1.12.65a3.72,3.72,0,0,1,1.68,2.91V191a3.53,3.53,0,0,0,1.59,2.77l5.39,3.11Z" transform="translate(-217.45 -110.45)"/><path class="cls-8" d="M309.83,195.78l-5.38-3.11a3.68,3.68,0,0,1-1.68-2.9v-1.3a3.54,3.54,0,0,0-1.6-2.77l-1.12-.65.08-.14,1.13.65a3.73,3.73,0,0,1,1.67,2.91v1.3a3.54,3.54,0,0,0,1.6,2.76l5.39,3.11Z" transform="translate(-217.45 -110.45)"/><path class="cls-8" d="M311.93,194.57l-5.39-3.11a3.7,3.7,0,0,1-1.67-2.9v-1.3a3.53,3.53,0,0,0-1.6-2.76l-1.12-.65.08-.14,1.12.65a3.68,3.68,0,0,1,1.68,2.9v1.3a3.5,3.5,0,0,0,1.59,2.76l5.39,3.11Z" transform="translate(-217.45 -110.45)"/><path class="cls-8" d="M314,193.37l-5.38-3.11a3.72,3.72,0,0,1-1.68-2.91v-1.3a3.54,3.54,0,0,0-1.6-2.76l-1.12-.65.08-.14,1.13.65a3.71,3.71,0,0,1,1.67,2.9v1.3a3.54,3.54,0,0,0,1.6,2.77l5.39,3.11Z" transform="translate(-217.45 -110.45)"/><path class="cls-8" d="M316.12,192.16l-5.39-3.11a3.71,3.71,0,0,1-1.67-2.9v-1.3a3.54,3.54,0,0,0-1.6-2.77l-1.12-.65.08-.14,1.12.65a3.72,3.72,0,0,1,1.68,2.91v1.3a3.53,3.53,0,0,0,1.59,2.76L316.2,192Z" transform="translate(-217.45 -110.45)"/><path class="cls-8" d="M318.21,191l-5.38-3.11a3.68,3.68,0,0,1-1.68-2.9v-1.3a3.48,3.48,0,0,0-1.6-2.76l-1.12-.65.08-.14,1.13.65a3.7,3.7,0,0,1,1.67,2.9v1.3a3.54,3.54,0,0,0,1.6,2.76l5.39,3.11Z" transform="translate(-217.45 -110.45)"/><path class="cls-8" d="M320.31,189.75l-5.39-3.11a3.73,3.73,0,0,1-1.67-2.91v-1.3a3.54,3.54,0,0,0-1.6-2.76l-1.12-.65.08-.14,1.12.65a3.68,3.68,0,0,1,1.68,2.9v1.3A3.53,3.53,0,0,0,315,186.5l5.39,3.1Z" transform="translate(-217.45 -110.45)"/><path class="cls-8" d="M322.4,188.54,317,185.43a3.72,3.72,0,0,1-1.68-2.91v-1.3a3.53,3.53,0,0,0-1.59-2.76l-1.13-.65.08-.14,1.13.65a3.71,3.71,0,0,1,1.67,2.9v1.3a3.54,3.54,0,0,0,1.6,2.77l5.39,3.11Z" transform="translate(-217.45 -110.45)"/><path class="cls-8" d="M324.5,187.33l-5.39-3.11a3.71,3.71,0,0,1-1.67-2.9V180a3.54,3.54,0,0,0-1.6-2.77l-1.12-.65.08-.14,1.12.65A3.72,3.72,0,0,1,317.6,180v1.3a3.53,3.53,0,0,0,1.59,2.76l5.39,3.11Z" transform="translate(-217.45 -110.45)"/><path class="cls-8" d="M326.59,186.12,321.21,183a3.68,3.68,0,0,1-1.68-2.9v-1.3a3.5,3.5,0,0,0-1.59-2.76l-1.13-.65.08-.14,1.13.65a3.7,3.7,0,0,1,1.67,2.9v1.3a3.51,3.51,0,0,0,1.6,2.76l5.39,3.11Z" transform="translate(-217.45 -110.45)"/><path class="cls-8" d="M328.69,184.92l-5.39-3.11a3.73,3.73,0,0,1-1.67-2.91v-1.3a3.54,3.54,0,0,0-1.6-2.76l-1.12-.65.08-.14,1.12.65a3.7,3.7,0,0,1,1.68,2.9v1.3a3.53,3.53,0,0,0,1.59,2.77l5.39,3.11Z" transform="translate(-217.45 -110.45)"/><path class="cls-8" d="M330.78,183.71l-5.38-3.11a3.7,3.7,0,0,1-1.68-2.9v-1.3a3.53,3.53,0,0,0-1.59-2.77L321,173l.08-.14,1.13.65a3.73,3.73,0,0,1,1.67,2.91v1.3a3.54,3.54,0,0,0,1.6,2.76l5.39,3.11Z" transform="translate(-217.45 -110.45)"/><path class="cls-8" d="M332.88,182.5l-5.39-3.11a3.7,3.7,0,0,1-1.67-2.9v-1.3a3.54,3.54,0,0,0-1.6-2.77l-1.12-.65.08-.14,1.12.65a3.72,3.72,0,0,1,1.68,2.91v1.3a3.53,3.53,0,0,0,1.59,2.76l5.39,3.11Z" transform="translate(-217.45 -110.45)"/><path class="cls-8" d="M335,181.29l-5.38-3.11a3.68,3.68,0,0,1-1.68-2.9V174a3.53,3.53,0,0,0-1.59-2.76l-1.13-.65.08-.14,1.13.65a3.7,3.7,0,0,1,1.67,2.9v1.3a3.51,3.51,0,0,0,1.6,2.76l5.39,3.11Z" transform="translate(-217.45 -110.45)"/><path class="cls-8" d="M337.07,180.09,331.68,177a3.73,3.73,0,0,1-1.67-2.91v-1.3a3.54,3.54,0,0,0-1.6-2.76l-1.12-.65.08-.14,1.12.65a3.7,3.7,0,0,1,1.68,2.9v1.3a3.53,3.53,0,0,0,1.59,2.77l5.39,3.11Z" transform="translate(-217.45 -110.45)"/><path class="cls-8" d="M339.16,178.88l-5.38-3.11a3.7,3.7,0,0,1-1.68-2.9v-1.3a3.53,3.53,0,0,0-1.59-2.77l-1.13-.65.08-.14,1.13.65a3.73,3.73,0,0,1,1.67,2.91v1.3a3.54,3.54,0,0,0,1.6,2.76l5.39,3.11Z" transform="translate(-217.45 -110.45)"/><path class="cls-8" d="M341.26,177.67l-5.39-3.11a3.7,3.7,0,0,1-1.67-2.9v-1.3a3.51,3.51,0,0,0-1.6-2.76l-1.12-.65.08-.14,1.12.65a3.68,3.68,0,0,1,1.68,2.9v1.3a3.53,3.53,0,0,0,1.59,2.76l5.39,3.11Z" transform="translate(-217.45 -110.45)"/><path class="cls-8" d="M343.35,176.47,338,173.36a3.72,3.72,0,0,1-1.68-2.91v-1.3a3.53,3.53,0,0,0-1.59-2.76l-1.13-.65.08-.14,1.13.65a3.7,3.7,0,0,1,1.67,2.9v1.3a3.54,3.54,0,0,0,1.6,2.77l5.39,3.11Z" transform="translate(-217.45 -110.45)"/><path class="cls-8" d="M282.7,199.4l-.08-.14,5.38-3.11a3.51,3.51,0,0,0,1.6-2.76v-1.3a3.68,3.68,0,0,1,1.68-2.9l1.12-.65.08.14-1.12.65a3.51,3.51,0,0,0-1.6,2.76v1.3a3.68,3.68,0,0,1-1.68,2.9Z" transform="translate(-217.45 -110.45)"/><path class="cls-8" d="M280.6,198.2l-.08-.14,5.39-3.11a3.53,3.53,0,0,0,1.59-2.77v-1.3a3.73,3.73,0,0,1,1.68-2.9l1.13-.65.08.14-1.13.65a3.53,3.53,0,0,0-1.59,2.76v1.3a3.74,3.74,0,0,1-1.68,2.91Z" transform="translate(-217.45 -110.45)"/><path class="cls-8" d="M278.51,197l-.08-.14,5.38-3.11a3.54,3.54,0,0,0,1.6-2.77v-1.29a3.72,3.72,0,0,1,1.68-2.91l1.12-.65.08.14-1.12.65a3.54,3.54,0,0,0-1.6,2.77V191a3.7,3.7,0,0,1-1.68,2.91Z" transform="translate(-217.45 -110.45)"/><path class="cls-8" d="M276.41,195.78l-.08-.14,5.39-3.11a3.53,3.53,0,0,0,1.59-2.76v-1.3a3.74,3.74,0,0,1,1.68-2.91l1.13-.65.08.14-1.13.65a3.53,3.53,0,0,0-1.59,2.77v1.3a3.71,3.71,0,0,1-1.68,2.9Z" transform="translate(-217.45 -110.45)"/><path class="cls-8" d="M274.32,194.57l-.08-.14,5.38-3.11a3.51,3.51,0,0,0,1.6-2.76v-1.3a3.68,3.68,0,0,1,1.68-2.9l1.12-.65.08.14-1.12.65a3.53,3.53,0,0,0-1.6,2.76v1.3a3.68,3.68,0,0,1-1.68,2.9Z" transform="translate(-217.45 -110.45)"/><path class="cls-8" d="M272.22,193.37l-.08-.14,5.39-3.11a3.53,3.53,0,0,0,1.59-2.77v-1.3a3.73,3.73,0,0,1,1.68-2.9l1.13-.65.08.14-1.13.65a3.53,3.53,0,0,0-1.59,2.76v1.3a3.74,3.74,0,0,1-1.68,2.91Z" transform="translate(-217.45 -110.45)"/><path class="cls-8" d="M270.13,192.16l-.08-.14,5.38-3.11a3.54,3.54,0,0,0,1.6-2.76v-1.3a3.72,3.72,0,0,1,1.68-2.91l1.12-.65.08.14-1.12.65a3.54,3.54,0,0,0-1.6,2.77v1.3a3.7,3.7,0,0,1-1.68,2.9Z" transform="translate(-217.45 -110.45)"/><path class="cls-8" d="M268,191l-.08-.14,5.39-3.11a3.53,3.53,0,0,0,1.59-2.76v-1.3a3.71,3.71,0,0,1,1.68-2.9l1.13-.65.08.14-1.13.65a3.5,3.5,0,0,0-1.59,2.76v1.3a3.71,3.71,0,0,1-1.68,2.9Z" transform="translate(-217.45 -110.45)"/><path class="cls-8" d="M257.25,194.64l0,0L234.3,181.47l.08-.14,22.87,13.13,8.61-4.86,5.38-3.1a3.54,3.54,0,0,0,1.6-2.77v-1.3a3.68,3.68,0,0,1,1.68-2.9l1.12-.65.08.14-1.12.65a3.54,3.54,0,0,0-1.6,2.76v1.3a3.72,3.72,0,0,1-1.68,2.91l-5.38,3.11Z" transform="translate(-217.45 -110.45)"/><path class="cls-8" d="M263.84,188.54l-.08-.14,5.39-3.11a3.53,3.53,0,0,0,1.59-2.77v-1.3a3.73,3.73,0,0,1,1.68-2.9l1.13-.65.08.14-1.13.65a3.53,3.53,0,0,0-1.59,2.76v1.3a3.74,3.74,0,0,1-1.68,2.91Z" transform="translate(-217.45 -110.45)"/><path class="cls-8" d="M261.75,187.33l-.08-.14,5.38-3.11a3.54,3.54,0,0,0,1.6-2.76V180a3.72,3.72,0,0,1,1.68-2.91l1.12-.65.08.14-1.12.65a3.54,3.54,0,0,0-1.6,2.77v1.3a3.7,3.7,0,0,1-1.68,2.9Z" transform="translate(-217.45 -110.45)"/><path class="cls-8" d="M259.65,186.12l-.08-.14,5.39-3.11a3.5,3.5,0,0,0,1.59-2.76v-1.3a3.71,3.71,0,0,1,1.68-2.9l1.13-.65.08.14-1.13.65a3.5,3.5,0,0,0-1.59,2.76v1.3A3.71,3.71,0,0,1,265,183Z" transform="translate(-217.45 -110.45)"/><path class="cls-8" d="M257.56,184.92l-.08-.14,5.38-3.11a3.54,3.54,0,0,0,1.6-2.77v-1.3a3.7,3.7,0,0,1,1.68-2.9l1.12-.65.08.14-1.12.65a3.54,3.54,0,0,0-1.6,2.76v1.3a3.72,3.72,0,0,1-1.68,2.91Z" transform="translate(-217.45 -110.45)"/><path class="cls-8" d="M255.46,183.71l-.08-.14,5.39-3.11a3.53,3.53,0,0,0,1.59-2.76v-1.3a3.74,3.74,0,0,1,1.68-2.91l1.13-.65.08.14-1.13.65a3.53,3.53,0,0,0-1.59,2.77v1.3a3.73,3.73,0,0,1-1.68,2.9Z" transform="translate(-217.45 -110.45)"/><path class="cls-8" d="M253.37,182.5l-.08-.14,5.38-3.11a3.54,3.54,0,0,0,1.6-2.76v-1.3a3.72,3.72,0,0,1,1.68-2.91l1.12-.65.08.14-1.12.65a3.54,3.54,0,0,0-1.6,2.77v1.3a3.68,3.68,0,0,1-1.68,2.9Z" transform="translate(-217.45 -110.45)"/><path class="cls-8" d="M251.27,181.29l-.08-.14,5.39-3.11a3.5,3.5,0,0,0,1.59-2.76V174a3.71,3.71,0,0,1,1.68-2.9l1.13-.65.08.14-1.13.65a3.53,3.53,0,0,0-1.59,2.76v1.3a3.71,3.71,0,0,1-1.68,2.9Z" transform="translate(-217.45 -110.45)"/><path class="cls-8" d="M249.18,180.09l-.08-.14,5.38-3.11a3.54,3.54,0,0,0,1.6-2.77v-1.3a3.7,3.7,0,0,1,1.68-2.9l1.12-.65.08.14-1.12.65a3.54,3.54,0,0,0-1.6,2.76v1.3a3.72,3.72,0,0,1-1.68,2.91Z" transform="translate(-217.45 -110.45)"/><path class="cls-8" d="M247.08,178.88l-.08-.14,5.39-3.11a3.53,3.53,0,0,0,1.59-2.76v-1.3a3.74,3.74,0,0,1,1.68-2.91l1.13-.65.08.14-1.13.65a3.53,3.53,0,0,0-1.59,2.77v1.3a3.73,3.73,0,0,1-1.68,2.9Z" transform="translate(-217.45 -110.45)"/><path class="cls-8" d="M245,177.67l-.08-.14,5.38-3.11a3.54,3.54,0,0,0,1.6-2.76v-1.3a3.68,3.68,0,0,1,1.68-2.9l1.12-.65.08.14-1.12.65a3.51,3.51,0,0,0-1.6,2.76v1.3a3.68,3.68,0,0,1-1.68,2.9Z" transform="translate(-217.45 -110.45)"/><path class="cls-8" d="M242.89,176.47l-.08-.14,5.39-3.11a3.53,3.53,0,0,0,1.59-2.77v-1.3a3.71,3.71,0,0,1,1.68-2.9l1.13-.65.08.14-1.13.65a3.53,3.53,0,0,0-1.59,2.76v1.3a3.74,3.74,0,0,1-1.68,2.91Z" transform="translate(-217.45 -110.45)"/><g class="cls-3"><polygon class="cls-2" points="34.35 43.36 26.63 38.91 26.63 47.82 34.35 52.28 42.07 47.82 42.07 38.91 34.35 43.36"/><polygon class="cls-2" points="34.35 52.28 26.63 47.82 26.63 38.91 34.35 43.36 34.35 52.28"/><polygon class="cls-4" points="42.07 47.82 34.35 52.28 34.35 43.36 42.07 38.91 42.07 47.82"/><polygon class="cls-2" points="34.35 43.36 26.63 38.91 34.35 34.45 42.07 38.91 34.35 43.36"/><polygon class="cls-5" points="34.35 43.36 26.63 38.91 26.63 39.29 34.35 43.75 42.07 39.29 42.07 38.91 34.35 43.36"/></g><polygon class="cls-21" points="34.35 37.96 26.63 33.5 34.35 29.04 42.07 33.5 34.35 37.96"/><polygon class="cls-2" points="34.35 22.29 26.63 17.83 26.63 26.75 34.35 31.21 42.07 26.75 42.07 17.83 34.35 22.29"/><polygon class="cls-2" points="34.35 31.21 26.63 26.75 26.63 17.83 34.35 22.29 34.35 31.21"/><polygon class="cls-4" points="42.07 26.75 34.35 31.21 34.35 22.29 42.07 17.83 42.07 26.75"/><polygon class="cls-2" points="34.35 22.29 26.63 17.83 34.35 13.37 42.07 17.83 34.35 22.29"/><polygon class="cls-4" points="34.35 21.19 28.53 17.83 34.35 14.47 40.17 17.83 34.35 21.19"/><polygon class="cls-5" points="34.35 22.29 26.63 17.83 26.63 18.22 34.35 22.68 42.07 18.22 42.07 17.83 34.35 22.29"/><polygon class="cls-2" points="34.35 8.92 26.63 4.46 26.63 13.37 34.35 17.83 42.07 13.37 42.07 4.46 34.35 8.92"/><polygon class="cls-2" points="34.35 17.83 26.63 13.37 26.63 4.46 34.35 8.92 34.35 17.83"/><polygon class="cls-4" points="42.07 13.37 34.35 17.83 34.35 8.92 42.07 4.46 42.07 13.37"/><polygon class="cls-2" points="34.35 8.92 26.63 4.46 34.35 0 42.07 4.46 34.35 8.92"/><polygon class="cls-5" points="34.35 8.92 26.63 4.46 26.63 4.84 34.35 9.3 42.07 4.84 42.07 4.46 34.35 8.92"/><g class="cls-3"><polygon class="cls-2" points="135.99 48.5 128.26 44.04 128.26 52.95 135.99 57.41 143.71 52.95 143.71 44.04 135.99 48.5"/><polygon class="cls-2" points="135.99 57.41 128.26 52.95 128.26 44.04 135.99 48.5 135.99 57.41"/><polygon class="cls-4" points="143.71 52.95 135.99 57.41 135.99 48.5 143.71 44.04 143.71 52.95"/><polygon class="cls-2" points="135.99 48.5 128.26 44.04 135.99 39.58 143.71 44.04 135.99 48.5"/><polygon class="cls-5" points="135.99 48.5 128.26 44.04 128.26 44.42 135.99 48.88 143.71 44.42 143.71 44.04 135.99 48.5"/></g><path class="cls-8" d="M353.65,155.63l0,0-11.31-6.53.12-.07,11.23-6.48,0,0,11.3,6.52-.12.07Zm-11-6.55,11,6.37,11-6.37-11-6.36Z" transform="translate(-217.45 -110.45)"/><polygon class="cls-21" points="135.99 43.09 128.26 38.63 135.99 34.17 143.71 38.63 135.99 43.09"/><polygon class="cls-2" points="135.99 27.42 128.26 22.96 128.26 31.88 135.99 36.34 143.71 31.88 143.71 22.96 135.99 27.42"/><polygon class="cls-2" points="135.99 36.34 128.26 31.88 128.26 22.96 135.99 27.42 135.99 36.34"/><polygon class="cls-4" points="143.71 31.88 135.99 36.34 135.99 27.42 143.71 22.96 143.71 31.88"/><polygon class="cls-2" points="135.99 27.42 128.26 22.96 135.99 18.51 143.71 22.96 135.99 27.42"/><polygon class="cls-5" points="135.99 27.42 128.26 22.96 128.26 23.35 135.99 27.81 143.71 23.35 143.71 22.96 135.99 27.42"/><path class="cls-8" d="M228.8,184.69l0,0-11.31-6.52.13-.07,11.22-6.48,0,0,11.3,6.53-.12.07Zm-11-6.55,11,6.36,11-6.36-11-6.37Z" transform="translate(-217.45 -110.45)"/><g class="cls-3"><polygon class="cls-2" points="11.34 77.69 3.62 73.23 3.62 82.15 11.34 86.6 19.07 82.15 19.07 73.23 11.34 77.69"/><polygon class="cls-2" points="11.34 86.6 3.62 82.15 3.62 73.23 11.34 77.69 11.34 86.6"/><polygon class="cls-4" points="19.07 82.15 11.34 86.6 11.34 77.69 19.07 73.23 19.07 82.15"/><polygon class="cls-2" points="11.34 77.69 3.62 73.23 11.34 68.77 19.07 73.23 11.34 77.69"/><polygon class="cls-5" points="11.34 77.69 3.62 73.23 3.62 73.62 11.34 78.08 19.07 73.62 19.07 73.23 11.34 77.69"/></g><polygon class="cls-21" points="11.34 72.28 3.62 67.83 11.34 63.37 19.07 67.83 11.34 72.28"/><polygon class="cls-2" points="11.34 56.62 3.62 52.16 3.62 61.07 11.34 65.53 19.07 61.07 19.07 52.16 11.34 56.62"/><polygon class="cls-2" points="11.34 65.53 3.62 61.07 3.62 52.16 11.34 56.62 11.34 65.53"/><polygon class="cls-4" points="19.07 61.07 11.34 65.53 11.34 56.62 19.07 52.16 19.07 61.07"/><polygon class="cls-2" points="11.34 56.62 3.62 52.16 11.34 47.7 19.07 52.16 11.34 56.62"/><polygon class="cls-5" points="11.34 56.62 3.62 52.16 3.62 52.54 11.34 57 19.07 52.54 19.07 52.16 11.34 56.62"/><g class="cls-3"><polygon class="cls-2" points="74.99 120.18 67.27 115.72 67.27 124.64 74.99 129.1 82.71 124.64 82.71 115.72 74.99 120.18"/><polygon class="cls-2" points="74.99 129.1 67.27 124.64 67.27 115.72 74.99 120.18 74.99 129.1"/><polygon class="cls-4" points="82.71 124.64 74.99 129.1 74.99 120.18 82.71 115.72 82.71 124.64"/><polygon class="cls-2" points="74.99 120.18 67.27 115.72 74.99 111.27 82.71 115.72 74.99 120.18"/><polygon class="cls-5" points="74.99 120.18 67.27 115.72 67.27 116.11 74.99 120.57 82.71 116.11 82.71 115.72 74.99 120.18"/></g><polygon class="cls-21" points="74.99 114.78 67.27 110.32 74.99 105.86 82.71 110.32 74.99 114.78"/><polygon class="cls-2" points="74.99 99.11 67.27 94.65 67.27 103.57 74.99 108.02 82.71 103.57 82.71 94.65 74.99 99.11"/><polygon class="cls-2" points="74.99 108.02 67.27 103.57 67.27 94.65 74.99 99.11 74.99 108.02"/><polygon class="cls-4" points="82.71 103.57 74.99 108.02 74.99 99.11 82.71 94.65 82.71 103.57"/><polygon class="cls-2" points="74.99 99.11 67.27 94.65 74.99 90.19 82.71 94.65 74.99 99.11"/><polygon class="cls-5" points="74.99 99.11 67.27 94.65 67.27 95.04 74.99 99.5 82.71 95.04 82.71 94.65 74.99 99.11"/><g class="cls-3"><polygon class="cls-2" points="138.48 99.3 145.16 105.21 146.93 96.47 140.25 90.57 131.8 93.4 130.03 102.14 138.48 99.3"/><polygon class="cls-2" points="140.25 90.57 146.93 96.47 145.16 105.21 138.48 99.3 140.25 90.57"/><polygon class="cls-4" points="131.8 93.4 140.25 90.57 138.48 99.3 130.03 102.14 131.8 93.4"/><polygon class="cls-2" points="138.48 99.3 145.16 105.21 136.71 108.04 130.03 102.14 138.48 99.3"/><polygon class="cls-5" points="138.48 99.3 145.16 105.21 145.24 104.83 138.56 98.92 130.1 101.76 130.03 102.14 138.48 99.3"/></g><polygon class="cls-21" points="139.85 95.91 132.13 91.45 139.85 86.99 147.57 91.45 139.85 95.91"/><path class="cls-22" d="M357.3,214.1a28.68,28.68,0,0,1-14.05-3.36c-3.77-2.17-5.85-5.07-5.85-8.16s2.08-6,5.85-8.16c7.75-4.47,20.36-4.47,28.11,0,3.76,2.18,5.84,5.08,5.84,8.17s-2.08,6-5.84,8.15A28.75,28.75,0,0,1,357.3,214.1Zm0-22.87a28.6,28.6,0,0,0-14,3.33c-3.72,2.15-5.76,5-5.76,8s2,5.88,5.76,8c7.71,4.45,20.24,4.45,27.94,0,3.72-2.14,5.77-5,5.77-8s-2.05-5.88-5.77-8A28.6,28.6,0,0,0,357.3,191.23Z" transform="translate(-217.45 -110.45)"/><path class="cls-23" d="M357.3,217.18c-6.45,0-12.91-1.41-17.83-4.25s-7.41-6.43-7.41-10.35,2.63-7.58,7.41-10.34c9.83-5.67,25.83-5.67,35.66,0,4.78,2.76,7.42,6.43,7.42,10.35s-2.64,7.58-7.41,10.34l-.05-.07.05.07C370.22,215.77,363.76,217.18,357.3,217.18Zm0-29c-6.43,0-12.85,1.42-17.75,4.24-4.72,2.73-7.33,6.35-7.33,10.2s2.61,7.48,7.33,10.21c9.79,5.65,25.72,5.65,35.5,0h0c4.73-2.73,7.33-6.35,7.33-10.2s-2.6-7.48-7.33-10.21C370.16,189.56,363.73,188.14,357.3,188.14Z" transform="translate(-217.45 -110.45)"/><path class="cls-2" d="M357.3,211.67A22.65,22.65,0,0,1,346.23,209c-3-1.72-4.61-4-4.61-6.45s1.63-4.72,4.61-6.44c6.1-3.52,16-3.52,22.15,0,3,1.72,4.61,4,4.61,6.45s-1.64,4.72-4.61,6.44A22.69,22.69,0,0,1,357.3,211.67Zm0-18a22.47,22.47,0,0,0-11,2.62c-2.92,1.69-4.53,3.93-4.53,6.3s1.61,4.62,4.53,6.31c6.06,3.5,15.93,3.5,22,0l0,.07,0-.07c2.92-1.69,4.53-3.93,4.53-6.3s-1.61-4.62-4.53-6.31A22.5,22.5,0,0,0,357.3,193.66Z" transform="translate(-217.45 -110.45)"/><polygon class="cls-2" points="138.96 83.61 138.07 74.73 130.83 79.94 131.72 88.81 139.84 92.48 147.08 87.28 138.96 83.61"/><polygon class="cls-2" points="131.72 88.81 130.83 79.94 138.07 74.73 138.96 83.61 131.72 88.81"/><polygon class="cls-4" points="139.84 92.48 131.72 88.81 138.96 83.61 147.08 87.28 139.84 92.48"/><polygon class="cls-2" points="138.96 83.61 138.07 74.73 146.2 78.4 147.08 87.28 138.96 83.61"/><polygon class="cls-5" points="138.96 83.61 138.07 74.73 137.76 74.96 138.64 83.83 146.77 87.5 147.08 87.28 138.96 83.61"/><polygon class="cls-21" points="135.29 90.42 142.71 90.42 139.84 92.48 135.29 90.42"/><polygon class="cls-2" points="75.74 33.86 68.02 29.4 68.02 38.32 75.74 42.77 83.46 38.32 83.46 29.4 75.74 33.86"/><polygon class="cls-2" points="75.74 42.77 68.02 38.32 68.02 29.4 75.74 33.86 75.74 42.77"/><polygon class="cls-4" points="83.46 38.32 75.74 42.77 75.74 33.86 83.46 29.4 83.46 38.32"/><polygon class="cls-2" points="75.74 33.86 68.02 29.4 75.74 24.94 83.46 29.4 75.74 33.86"/><polygon class="cls-5" points="75.74 33.86 68.36 29.59 68.02 29.79 75.74 34.25 83.46 29.79 83.13 29.59 75.74 33.86"/><polygon class="cls-2" points="85.77 39.58 78.05 35.12 78.05 44.04 85.77 48.5 93.49 44.04 93.49 35.12 85.77 39.58"/><polygon class="cls-2" points="85.77 48.5 78.05 44.04 78.05 35.12 85.77 39.58 85.77 48.5"/><polygon class="cls-4" points="93.49 44.04 85.77 48.5 85.77 39.58 93.49 35.12 93.49 44.04"/><polygon class="cls-2" points="85.77 39.58 78.05 35.12 85.77 30.67 93.49 35.12 85.77 39.58"/><polygon class="cls-5" points="85.77 39.58 78.39 35.32 78.05 35.51 85.77 39.97 93.49 35.51 93.16 35.32 85.77 39.58"/><polygon class="cls-2" points="95.8 45.3 88.08 40.85 88.08 49.76 95.8 54.22 103.52 49.76 103.52 40.85 95.8 45.3"/><polygon class="cls-2" points="95.8 54.22 88.08 49.76 88.08 40.85 95.8 45.3 95.8 54.22"/><polygon class="cls-4" points="103.52 49.76 95.8 54.22 95.8 45.3 103.52 40.85 103.52 49.76"/><polygon class="cls-2" points="95.8 45.3 88.08 40.85 95.8 36.39 103.52 40.85 95.8 45.3"/><polygon class="cls-5" points="95.8 45.3 88.42 41.04 88.08 41.23 95.8 45.69 103.52 41.23 103.52 40.85 95.8 45.3"/><polygon class="cls-2" points="65.71 39.97 57.99 35.51 57.99 44.43 65.71 48.88 73.43 44.43 73.43 35.51 65.71 39.97"/><polygon class="cls-2" points="65.71 48.88 57.99 44.43 57.99 35.51 65.71 39.97 65.71 48.88"/><polygon class="cls-4" points="73.43 44.43 65.71 48.88 65.71 39.97 73.43 35.51 73.43 44.43"/><polygon class="cls-2" points="65.71 39.97 57.99 35.51 65.71 31.05 73.43 35.51 65.71 39.97"/><polygon class="cls-5" points="65.71 39.97 58.33 35.7 57.99 35.9 65.71 40.36 73.43 35.9 73.1 35.7 65.71 39.97"/><polygon class="cls-2" points="75.74 45.69 68.02 41.23 68.02 50.15 75.74 54.61 83.46 50.15 83.46 41.23 75.74 45.69"/><polygon class="cls-2" points="75.74 54.61 68.02 50.15 68.02 41.23 75.74 45.69 75.74 54.61"/><polygon class="cls-4" points="83.46 50.15 75.74 54.61 75.74 45.69 83.46 41.23 83.46 50.15"/><polygon class="cls-2" points="75.74 45.69 68.02 41.23 75.74 36.78 83.46 41.23 75.74 45.69"/><polygon class="cls-5" points="75.74 45.69 68.36 41.43 68.02 41.62 75.74 46.08 83.46 41.62 83.13 41.43 75.74 45.69"/><polygon class="cls-2" points="85.77 51.41 78.05 46.96 78.05 55.87 85.77 60.33 93.49 55.87 93.49 46.96 85.77 51.41"/><polygon class="cls-2" points="85.77 60.33 78.05 55.87 78.05 46.96 85.77 51.41 85.77 60.33"/><polygon class="cls-4" points="93.49 55.87 85.77 60.33 85.77 51.41 93.49 46.96 93.49 55.87"/><polygon class="cls-2" points="85.77 51.41 78.05 46.96 85.77 42.5 93.49 46.96 85.77 51.41"/><polygon class="cls-5" points="85.77 51.41 78.39 47.15 78.05 47.34 85.77 51.8 93.49 47.34 93.49 46.96 85.77 51.41"/><polygon class="cls-2" points="55.68 46.08 47.96 41.62 47.96 50.54 55.68 54.99 63.41 50.54 63.41 41.62 55.68 46.08"/><polygon class="cls-2" points="55.68 54.99 47.96 50.54 47.96 41.62 55.68 46.08 55.68 54.99"/><polygon class="cls-4" points="63.41 50.54 55.68 54.99 55.68 46.08 63.41 41.62 63.41 50.54"/><polygon class="cls-2" points="55.68 46.08 47.96 41.62 55.68 37.16 63.4 41.62 55.68 46.08"/><polygon class="cls-5" points="55.68 46.08 47.96 41.62 47.96 42.01 55.68 46.47 63.4 42.01 63.07 41.81 55.68 46.08"/><polygon class="cls-2" points="65.71 51.8 57.99 47.34 57.99 56.26 65.71 60.72 73.43 56.26 73.43 47.34 65.71 51.8"/><polygon class="cls-2" points="65.71 60.72 57.99 56.26 57.99 47.34 65.71 51.8 65.71 60.72"/><polygon class="cls-4" points="73.43 56.26 65.71 60.72 65.71 51.8 73.43 47.34 73.43 56.26"/><polygon class="cls-2" points="65.71 51.8 57.99 47.34 65.71 42.88 73.43 47.34 65.71 51.8"/><polygon class="cls-5" points="65.71 51.8 57.99 47.34 57.99 47.73 65.71 52.19 73.43 47.73 73.1 47.54 65.71 51.8"/><polygon class="cls-2" points="75.74 57.52 68.02 53.07 68.02 61.98 75.74 66.44 83.46 61.98 83.46 53.07 75.74 57.52"/><polygon class="cls-2" points="75.74 66.44 68.02 61.98 68.02 53.07 75.74 57.52 75.74 66.44"/><polygon class="cls-4" points="83.46 61.98 75.74 66.44 75.74 57.52 83.46 53.07 83.46 61.98"/><polygon class="cls-2" points="75.74 57.52 68.02 53.07 75.74 48.61 83.46 53.07 75.74 57.52"/><polygon class="cls-5" points="75.74 57.52 68.02 53.07 68.02 53.45 75.74 57.91 83.46 53.45 83.46 53.07 75.74 57.52"/><polygon class="cls-2" points="75.74 22.03 68.02 17.57 68.02 26.48 75.74 30.94 83.46 26.48 83.46 17.57 75.74 22.03"/><polygon class="cls-2" points="75.74 30.94 68.02 26.48 68.02 17.57 75.74 22.03 75.74 30.94"/><polygon class="cls-4" points="83.46 26.48 75.74 30.94 75.74 22.03 83.46 17.57 83.46 26.48"/><polygon class="cls-2" points="75.74 22.03 68.02 17.57 75.74 13.11 83.46 17.57 75.74 22.03"/><polygon class="cls-5" points="75.74 22.03 68.36 17.76 68.02 17.96 75.74 22.41 83.46 17.96 83.13 17.76 75.74 22.03"/><polygon class="cls-6" points="75.74 56.07 70.47 53.03 75.74 49.99 81.01 53.03 75.74 56.07"/><polygon class="cls-6" points="65.71 50.35 60.45 47.31 65.71 44.27 70.98 47.31 65.71 50.35"/><polygon class="cls-6" points="85.77 49.96 80.5 46.92 85.77 43.88 91.04 46.92 85.77 49.96"/><polygon class="cls-6" points="95.82 43.92 90.55 40.88 95.82 37.84 101.09 40.88 95.82 43.92"/><polygon class="cls-6" points="55.68 44.63 50.42 41.59 55.68 38.54 60.95 41.59 55.68 44.63"/><polygon class="cls-2" points="85.77 27.75 78.05 23.29 78.05 32.21 85.77 36.67 93.49 32.21 93.49 23.29 85.77 27.75"/><polygon class="cls-2" points="85.77 36.67 78.05 32.21 78.05 23.29 85.77 27.75 85.77 36.67"/><polygon class="cls-4" points="93.49 32.21 85.77 36.67 85.77 27.75 93.49 23.29 93.49 32.21"/><polygon class="cls-2" points="85.77 27.75 78.05 23.29 85.77 18.83 93.49 23.29 85.77 27.75"/><polygon class="cls-5" points="85.77 27.75 78.39 23.48 78.05 23.68 85.77 28.14 93.49 23.68 93.16 23.48 85.77 27.75"/><polygon class="cls-2" points="95.8 33.47 88.08 29.02 88.08 37.93 95.8 42.39 103.52 37.93 103.52 29.02 95.8 33.47"/><polygon class="cls-2" points="95.8 42.39 88.08 37.93 88.08 29.02 95.8 33.47 95.8 42.39"/><polygon class="cls-4" points="103.52 37.93 95.8 42.39 95.8 33.47 103.52 29.02 103.52 37.93"/><polygon class="cls-2" points="95.8 33.47 88.08 29.02 95.8 24.56 103.52 29.02 95.8 33.47"/><polygon class="cls-5" points="95.8 33.47 88.42 29.21 88.08 29.4 95.8 33.86 103.52 29.4 103.52 29.02 95.8 33.47"/><polygon class="cls-2" points="65.71 28.14 57.99 23.68 57.99 32.59 65.71 37.05 73.43 32.59 73.43 23.68 65.71 28.14"/><polygon class="cls-2" points="65.71 37.05 57.99 32.59 57.99 23.68 65.71 28.14 65.71 37.05"/><polygon class="cls-4" points="73.43 32.59 65.71 37.05 65.71 28.14 73.43 23.68 73.43 32.59"/><polygon class="cls-2" points="65.71 28.14 57.99 23.68 65.71 19.22 73.43 23.68 65.71 28.14"/><polygon class="cls-5" points="65.71 28.14 58.33 23.87 57.99 24.07 65.71 28.52 73.43 24.07 73.1 23.87 65.71 28.14"/><polygon class="cls-2" points="75.74 33.86 68.02 29.4 68.02 38.32 75.74 42.77 83.46 38.32 83.46 29.4 75.74 33.86"/><polygon class="cls-2" points="75.74 42.77 68.02 38.32 68.02 29.4 75.74 33.86 75.74 42.77"/><polygon class="cls-4" points="83.46 38.32 75.74 42.77 75.74 33.86 83.46 29.4 83.46 38.32"/><polygon class="cls-2" points="75.74 33.86 68.02 29.4 75.74 24.94 83.46 29.4 75.74 33.86"/><polygon class="cls-5" points="75.74 33.86 68.36 29.59 68.02 29.79 75.74 34.25 83.46 29.79 83.13 29.59 75.74 33.86"/><polygon class="cls-2" points="85.77 39.58 78.05 35.12 78.05 44.04 85.77 48.5 93.49 44.04 93.49 35.12 85.77 39.58"/><polygon class="cls-2" points="85.77 48.5 78.05 44.04 78.05 35.12 85.77 39.58 85.77 48.5"/><polygon class="cls-4" points="93.49 44.04 85.77 48.5 85.77 39.58 93.49 35.12 93.49 44.04"/><polygon class="cls-2" points="85.77 39.58 78.05 35.12 85.77 30.67 93.49 35.12 85.77 39.58"/><polygon class="cls-5" points="85.77 39.58 78.39 35.32 78.05 35.51 85.77 39.97 93.49 35.51 93.49 35.12 85.77 39.58"/><polygon class="cls-2" points="55.68 34.25 47.96 29.79 47.96 38.7 55.68 43.16 63.41 38.7 63.41 29.79 55.68 34.25"/><polygon class="cls-2" points="55.68 43.16 47.96 38.7 47.96 29.79 55.68 34.25 55.68 43.16"/><polygon class="cls-4" points="63.41 38.7 55.68 43.16 55.68 34.25 63.41 29.79 63.41 38.7"/><polygon class="cls-2" points="55.68 34.25 47.96 29.79 55.68 25.33 63.4 29.79 55.68 34.25"/><polygon class="cls-5" points="55.68 34.25 48.3 29.98 47.96 30.18 55.68 34.63 63.4 30.18 63.07 29.98 55.68 34.25"/><polygon class="cls-2" points="65.71 39.97 57.99 35.51 57.99 44.43 65.71 48.88 73.43 44.43 73.43 35.51 65.71 39.97"/><polygon class="cls-2" points="65.71 48.88 57.99 44.43 57.99 35.51 65.71 39.97 65.71 48.88"/><polygon class="cls-4" points="73.43 44.43 65.71 48.88 65.71 39.97 73.43 35.51 73.43 44.43"/><polygon class="cls-2" points="65.71 39.97 57.99 35.51 65.71 31.05 73.43 35.51 65.71 39.97"/><polygon class="cls-5" points="65.71 39.97 57.99 35.51 57.99 35.9 65.71 40.36 73.43 35.9 73.1 35.7 65.71 39.97"/><polygon class="cls-2" points="75.74 45.69 68.02 41.23 68.02 50.15 75.74 54.61 83.46 50.15 83.46 41.23 75.74 45.69"/><polygon class="cls-2" points="75.74 54.61 68.02 50.15 68.02 41.23 75.74 45.69 75.74 54.61"/><polygon class="cls-4" points="83.46 50.15 75.74 54.61 75.74 45.69 83.46 41.23 83.46 50.15"/><polygon class="cls-2" points="75.74 45.69 68.02 41.23 75.74 36.78 83.46 41.23 75.74 45.69"/><polygon class="cls-5" points="75.74 45.69 68.02 41.23 68.02 41.62 75.74 46.08 83.46 41.62 83.46 41.23 75.74 45.69"/><polygon class="cls-6" points="95.82 32.14 90.55 29.1 95.82 26.06 101.09 29.1 95.82 32.14"/><polygon class="cls-6" points="55.68 32.85 50.42 29.8 55.68 26.76 60.95 29.8 55.68 32.85"/><polygon class="cls-2" points="75.74 10.2 68.02 5.74 68.02 14.65 75.74 19.11 83.46 14.65 83.46 5.74 75.74 10.2"/><polygon class="cls-2" points="75.74 19.11 68.02 14.65 68.02 5.74 75.74 10.2 75.74 19.11"/><polygon class="cls-4" points="83.46 14.65 75.74 19.11 75.74 10.2 83.46 5.74 83.46 14.65"/><polygon class="cls-2" points="75.74 10.2 68.02 5.74 75.74 1.28 83.46 5.74 75.74 10.2"/><polygon class="cls-5" points="75.74 10.2 68.02 5.74 68.02 6.12 75.74 10.58 83.46 6.12 83.46 5.74 75.74 10.2"/><polygon class="cls-2" points="85.77 15.92 78.05 11.46 78.05 20.38 85.77 24.83 93.49 20.38 93.49 11.46 85.77 15.92"/><polygon class="cls-2" points="85.77 24.83 78.05 20.38 78.05 11.46 85.77 15.92 85.77 24.83"/><polygon class="cls-4" points="93.49 20.38 85.77 24.83 85.77 15.92 93.49 11.46 93.49 20.38"/><polygon class="cls-2" points="85.77 15.92 78.05 11.46 85.77 7 93.49 11.46 85.77 15.92"/><polygon class="cls-5" points="85.77 15.92 78.05 11.46 78.05 11.85 85.77 16.3 93.49 11.85 93.49 11.46 85.77 15.92"/><polygon class="cls-2" points="95.8 21.64 88.08 17.18 88.08 26.1 95.8 30.56 103.52 26.1 103.52 17.18 95.8 21.64"/><polygon class="cls-2" points="95.8 30.56 88.08 26.1 88.08 17.18 95.8 21.64 95.8 30.56"/><polygon class="cls-4" points="103.52 26.1 95.8 30.56 95.8 21.64 103.52 17.18 103.52 26.1"/><polygon class="cls-2" points="95.8 21.64 88.08 17.18 95.8 12.72 103.52 17.18 95.8 21.64"/><polygon class="cls-5" points="95.8 21.64 88.08 17.18 88.08 17.57 95.8 22.03 103.52 17.57 103.52 17.18 95.8 21.64"/><polygon class="cls-2" points="65.71 16.3 57.99 11.85 57.99 20.76 65.71 25.22 73.43 20.76 73.43 11.85 65.71 16.3"/><polygon class="cls-2" points="65.71 25.22 57.99 20.76 57.99 11.85 65.71 16.3 65.71 25.22"/><polygon class="cls-4" points="73.43 20.76 65.71 25.22 65.71 16.3 73.43 11.85 73.43 20.76"/><polygon class="cls-2" points="65.71 16.3 57.99 11.85 65.71 7.39 73.43 11.85 65.71 16.3"/><polygon class="cls-5" points="65.71 16.3 57.99 11.85 57.99 12.23 65.71 16.69 73.43 12.23 73.43 11.85 65.71 16.3"/><polygon class="cls-2" points="55.68 22.41 47.96 17.96 47.96 26.87 55.68 31.33 63.41 26.87 63.41 17.96 55.68 22.41"/><polygon class="cls-2" points="55.68 31.33 47.96 26.87 47.96 17.96 55.68 22.41 55.68 31.33"/><polygon class="cls-4" points="63.41 26.87 55.68 31.33 55.68 22.41 63.41 17.96 63.41 26.87"/><polygon class="cls-2" points="55.68 22.41 47.96 17.96 55.68 13.5 63.4 17.96 55.68 22.41"/><polygon class="cls-5" points="55.68 22.41 47.96 17.96 47.96 18.34 55.68 22.8 63.4 18.34 63.41 17.96 55.68 22.41"/><path class="cls-22" d="M247.25,189.36a1,1,0,1,0,1-1A1,1,0,0,0,247.25,189.36Z" transform="translate(-217.45 -110.45)"/><circle class="cls-8" cx="30.84" cy="78.91" r="0.45"/><path class="cls-22" d="M339.43,141.85a1,1,0,1,0,1-1A1,1,0,0,0,339.43,141.85Z" transform="translate(-217.45 -110.45)"/><path class="cls-8" d="M340,141.85a.45.45,0,1,0,.9,0,.45.45,0,1,0-.9,0Z" transform="translate(-217.45 -110.45)"/><path class="cls-22" d="M369.78,207.1a1,1,0,1,0,1.05-1A1,1,0,0,0,369.78,207.1Z" transform="translate(-217.45 -110.45)"/><circle class="cls-8" cx="153.37" cy="96.65" r="0.45"/><circle class="cls-22" cx="133.51" cy="100.35" r="1.63"/><path class="cls-8" d="M350.26,210.8a.7.7,0,0,0,.71.7.7.7,0,0,0,.7-.7.7.7,0,0,0-.7-.71A.71.71,0,0,0,350.26,210.8Z" transform="translate(-217.45 -110.45)"/><path class="cls-22" d="M344.45,196.61a1.11,1.11,0,1,0,1.11-1.1A1.11,1.11,0,0,0,344.45,196.61Z" transform="translate(-217.45 -110.45)"/><path class="cls-8" d="M345.08,196.61a.48.48,0,1,0,.95,0,.48.48,0,1,0-.95,0Z" transform="translate(-217.45 -110.45)"/><path class="cls-22" d="M328.33,135.84a1,1,0,1,0,1-1A1,1,0,0,0,328.33,135.84Z" transform="translate(-217.45 -110.45)"/><path class="cls-8" d="M328.92,135.84a.45.45,0,0,0,.45.45.45.45,0,1,0,0-.9A.45.45,0,0,0,328.92,135.84Z" transform="translate(-217.45 -110.45)"/><path class="cls-22" d="M235.48,182.73a1,1,0,1,0,1-1A1,1,0,0,0,235.48,182.73Z" transform="translate(-217.45 -110.45)"/><path class="cls-8" d="M236.07,182.73a.45.45,0,1,0,.45-.45A.46.46,0,0,0,236.07,182.73Z" transform="translate(-217.45 -110.45)"/></g></g></svg>