<svg xmlns="http://www.w3.org/2000/svg" xmlns:xlink="http://www.w3.org/1999/xlink" viewBox="0 0 306 338.34"><defs><style>.cls-1{isolation:isolate;}.cls-2{opacity:0.48;}.cls-3{fill:url(#Áåçûìÿííûé_ãðàäèåíò_254);}.cls-4{fill:url(#Áåçûìÿííûé_ãðàäèåíò_254-2);}.cls-5{fill:url(#Áåçûìÿííûé_ãðàäèåíò_254-3);}.cls-6{fill:url(#Áåçûìÿííûé_ãðàäèåíò_254-4);}.cls-7{fill:url(#Áåçûìÿííûé_ãðàäèåíò_254-5);}.cls-8{fill:url(#Áåçûìÿííûé_ãðàäèåíò_254-6);}.cls-9{fill:url(#Áåçûìÿííûé_ãðàäèåíò_254-7);}.cls-10{fill:url(#Áåçûìÿííûé_ãðàäèåíò_254-8);}.cls-11,.cls-16{opacity:0.11;}.cls-12{fill:url(#Áåçûìÿííûé_ãðàäèåíò_260);}.cls-13{fill:url(#Áåçûìÿííûé_ãðàäèåíò_260-2);}.cls-14{fill:url(#Áåçûìÿííûé_ãðàäèåíò_260-3);}.cls-15{fill:url(#Áåçûìÿííûé_ãðàäèåíò_260-4);}.cls-16{fill:url(#Áåçûìÿííûé_ãðàäèåíò_260-5);}.cls-17{fill:url(#Áåçûìÿííûé_ãðàäèåíò_260-6);}.cls-18{fill:url(#Áåçûìÿííûé_ãðàäèåíò_260-7);}.cls-19{fill:url(#Áåçûìÿííûé_ãðàäèåíò_260-8);}.cls-20{fill:url(#Áåçûìÿííûé_ãðàäèåíò_260-9);}.cls-21,.cls-45{opacity:0.5;}.cls-21{fill:url(#Áåçûìÿííûé_ãðàäèåíò_260-10);}.cls-22{fill:url(#Áåçûìÿííûé_ãðàäèåíò_260-12);}.cls-23{fill:#180d5b;opacity:0.2;}.cls-24{fill:url(#Áåçûìÿííûé_ãðàäèåíò_16);}.cls-25,.cls-28,.cls-38,.cls-44,.cls-45{mix-blend-mode:lighten;}.cls-25{fill:url(#Áåçûìÿííûé_ãðàäèåíò_12);}.cls-26{fill:#42e8e0;}.cls-27{fill:url(#Áåçûìÿííûé_ãðàäèåíò_16-2);}.cls-29{fill:url(#Áåçûìÿííûé_ãðàäèåíò_12-2);}.cls-30{fill:url(#Áåçûìÿííûé_ãðàäèåíò_16-3);}.cls-31{fill:url(#Áåçûìÿííûé_ãðàäèåíò_12-3);}.cls-32{fill:#393091;}.cls-33{fill:url(#Áåçûìÿííûé_ãðàäèåíò_16-4);}.cls-34{fill:#bcbeff;}.cls-35{fill:url(#Áåçûìÿííûé_ãðàäèåíò_16-5);}.cls-36{fill:url(#Áåçûìÿííûé_ãðàäèåíò_12-4);}.cls-37{fill:url(#Áåçûìÿííûé_ãðàäèåíò_16-6);}.cls-38{fill:url(#Áåçûìÿííûé_ãðàäèåíò_12-5);}.cls-39{fill:#fff;}.cls-40{fill:#453c9e;}.cls-41{fill:url(#Áåçûìÿííûé_ãðàäèåíò_16-7);}.cls-42{fill:url(#Áåçûìÿííûé_ãðàäèåíò_12-6);}.cls-43{fill:url(#Áåçûìÿííûé_ãðàäèåíò_16-8);}.cls-44{fill:url(#Áåçûìÿííûé_ãðàäèåíò_12-7);}.cls-45{fill:url(#linear-gradient);}</style><linearGradient id="Áåçûìÿííûé_ãðàäèåíò_254" x1="431.63" y1="267.02" x2="445.24" y2="267.02" gradientUnits="userSpaceOnUse"><stop offset="0" stop-color="#42e8e0"/><stop offset="0.15" stop-color="#43e3e0"/><stop offset="0.33" stop-color="#45d5df"/><stop offset="0.52" stop-color="#49bddd"/><stop offset="0.72" stop-color="#4e9cdb"/><stop offset="0.93" stop-color="#5472d8"/><stop offset="1" stop-color="#5761d7"/></linearGradient><linearGradient id="Áåçûìÿííûé_ãðàäèåíò_254-2" x1="314.79" y1="209.73" x2="399.59" y2="209.73" xlink:href="#Áåçûìÿííûé_ãðàäèåíò_254"/><linearGradient id="Áåçûìÿííûé_ãðàäèåíò_254-3" x1="175.89" y1="213.3" x2="256.01" y2="213.3" xlink:href="#Áåçûìÿííûé_ãðàäèåíò_254"/><linearGradient id="Áåçûìÿííûé_ãðàäèåíò_254-4" x1="139.24" y1="270.69" x2="147.82" y2="270.69" xlink:href="#Áåçûìÿííûé_ãðàäèåíò_254"/><linearGradient id="Áåçûìÿííûé_ãðàäèåíò_254-5" x1="139.24" y1="299.05" x2="146.57" y2="299.05" xlink:href="#Áåçûìÿííûé_ãðàäèåíò_254"/><linearGradient id="Áåçûìÿííûé_ãðàäèåíò_254-6" x1="173.36" y1="356.32" x2="252.22" y2="356.32" xlink:href="#Áåçûìÿííûé_ãðàäèåíò_254"/><linearGradient id="Áåçûìÿííûé_ãðàäèåíò_254-7" x1="310.93" y1="362.02" x2="396.73" y2="362.02" xlink:href="#Áåçûìÿííûé_ãðàäèåíò_254"/><linearGradient id="Áåçûìÿííûé_ãðàäèåíò_254-8" x1="429.95" y1="305.57" x2="445.22" y2="305.57" xlink:href="#Áåçûìÿííûé_ãðàäèåíò_254"/><linearGradient id="Áåçûìÿííûé_ãðàäèåíò_260" x1="173.97" y1="320.4" x2="288.56" y2="320.4" gradientTransform="matrix(-1, 0, 0, 1, 519.67, 0)" gradientUnits="userSpaceOnUse"><stop offset="0" stop-color="#5761d7"/><stop offset="0.07" stop-color="#5472d8"/><stop offset="0.28" stop-color="#4e9cdb"/><stop offset="0.48" stop-color="#49bddd"/><stop offset="0.67" stop-color="#45d5df"/><stop offset="0.85" stop-color="#43e3e0"/><stop offset="1" stop-color="#42e8e0"/></linearGradient><linearGradient id="Áåçûìÿííûé_ãðàäèåíò_260-2" x1="173.97" y1="311.58" x2="288.56" y2="311.58" xlink:href="#Áåçûìÿííûé_ãðàäèåíò_260"/><linearGradient id="Áåçûìÿííûé_ãðàäèåíò_260-3" x1="173.97" y1="302.77" x2="288.56" y2="302.77" xlink:href="#Áåçûìÿííûé_ãðàäèåíò_260"/><linearGradient id="Áåçûìÿííûé_ãðàäèåíò_260-4" x1="173.97" y1="293.95" x2="288.56" y2="293.95" xlink:href="#Áåçûìÿííûé_ãðàäèåíò_260"/><linearGradient id="Áåçûìÿííûé_ãðàäèåíò_260-5" x1="173.97" y1="307.18" x2="288.56" y2="307.18" xlink:href="#Áåçûìÿííûé_ãðàäèåíò_260"/><linearGradient id="Áåçûìÿííûé_ãðàäèåíò_260-6" x1="161.79" y1="278.99" x2="300.73" y2="278.99" xlink:href="#Áåçûìÿííûé_ãðàäèåíò_260"/><linearGradient id="Áåçûìÿííûé_ãðàäèåíò_260-7" x1="161.79" y1="268.3" x2="300.73" y2="268.3" xlink:href="#Áåçûìÿííûé_ãðàäèåíò_260"/><linearGradient id="Áåçûìÿííûé_ãðàäèåíò_260-8" x1="161.79" y1="257.61" x2="300.73" y2="257.61" xlink:href="#Áåçûìÿííûé_ãðàäèåíò_260"/><linearGradient id="Áåçûìÿííûé_ãðàäèåíò_260-9" x1="161.79" y1="246.93" x2="300.73" y2="246.93" xlink:href="#Áåçûìÿííûé_ãðàäèåíò_260"/><linearGradient id="Áåçûìÿííûé_ãðàäèåíò_260-10" x1="161.79" y1="262.96" x2="300.73" y2="262.96" xlink:href="#Áåçûìÿííûé_ãðàäèåíò_260"/><linearGradient id="Áåçûìÿííûé_ãðàäèåíò_260-12" x1="161.79" y1="266.19" x2="300.73" y2="266.19" xlink:href="#Áåçûìÿííûé_ãðàäèåíò_260"/><radialGradient id="Áåçûìÿííûé_ãðàäèåíò_16" cx="-1269.51" cy="-2122.85" r="25.92" gradientTransform="matrix(0.66, 0.64, -1.06, 1.08, -1156.85, 3304.44)" gradientUnits="userSpaceOnUse"><stop offset="0" stop-color="#c0bff6"/><stop offset="1" stop-color="#393091"/></radialGradient><linearGradient id="Áåçûìÿííûé_ãðàäèåíò_12" x1="-2549.87" y1="-104.91" x2="-2562.01" y2="-88.7" gradientTransform="matrix(0.66, 0.64, -0.8, 0.82, 1835.74, 1931.95)" gradientUnits="userSpaceOnUse"><stop offset="0" stop-color="#42e8e0"/><stop offset="0" stop-color="#42e6df"/><stop offset="0.14" stop-color="#40b6cb"/><stop offset="0.27" stop-color="#3e8db9"/><stop offset="0.41" stop-color="#3c6baa"/><stop offset="0.55" stop-color="#3b519f"/><stop offset="0.69" stop-color="#3a3f97"/><stop offset="0.84" stop-color="#393493"/><stop offset="1" stop-color="#393091"/></linearGradient><radialGradient id="Áåçûìÿííûé_ãðàäèåíò_16-2" cx="-110.58" cy="-194.37" r="77.43" gradientTransform="translate(169.54 376.17) rotate(73.45)" xlink:href="#Áåçûìÿííûé_ãðàäèåíò_16"/><linearGradient id="Áåçûìÿííûé_ãðàäèåíò_12-2" x1="-382.2" y1="425.72" x2="-355.37" y2="425.72" gradientTransform="translate(95.64 -361.76) rotate(-57.51)" xlink:href="#Áåçûìÿííûé_ãðàäèåíò_12"/><radialGradient id="Áåçûìÿííûé_ãðàäèåíò_16-3" cx="888.75" cy="300.65" r="76.49" gradientTransform="translate(-382.26 -123.18) scale(0.78 1.06)" xlink:href="#Áåçûìÿííûé_ãðàäèåíò_16"/><linearGradient id="Áåçûìÿííûé_ãðàäèåíò_12-3" x1="862.49" y1="351.83" x2="862.49" y2="275.37" gradientTransform="translate(-382.26 -123.18) scale(0.78 1.06)" xlink:href="#Áåçûìÿííûé_ãðàäèåíò_12"/><radialGradient id="Áåçûìÿííûé_ãðàäèåíò_16-4" cx="253.97" cy="95.09" r="41.91" gradientTransform="matrix(1, 0, 0, 1, 0, 0)" xlink:href="#Áåçûìÿííûé_ãðàäèåíò_16"/><radialGradient id="Áåçûìÿííûé_ãðàäèåíò_16-5" cx="173.02" cy="87.72" r="59.7" gradientTransform="matrix(1, 0, 0, 1, 0, 0)" xlink:href="#Áåçûìÿííûé_ãðàäèåíò_16"/><linearGradient id="Áåçûìÿííûé_ãðàäèåíò_12-4" x1="146.06" y1="127.94" x2="155.9" y2="57.98" gradientTransform="matrix(1, 0, 0, 1, 0, 0)" xlink:href="#Áåçûìÿííûé_ãðàäèåíò_12"/><radialGradient id="Áåçûìÿííûé_ãðàäèåíò_16-6" cx="311.78" cy="144.05" r="28.35" gradientTransform="matrix(1, 0, 0, 1, 0, 0)" xlink:href="#Áåçûìÿííûé_ãðàäèåíò_16"/><linearGradient id="Áåçûìÿííûé_ãðàäèåíò_12-5" x1="306.07" y1="172.38" x2="316.04" y2="145.01" gradientTransform="matrix(1, 0, 0, 1, 0, 0)" xlink:href="#Áåçûìÿííûé_ãðàäèåíò_12"/><radialGradient id="Áåçûìÿííûé_ãðàäèåíò_16-7" cx="-84.67" cy="-143.09" r="27.98" gradientTransform="translate(182.87 268.38) rotate(98.88)" xlink:href="#Áåçûìÿííûé_ãðàäèåíò_16"/><linearGradient id="Áåçûìÿííûé_ãðàäèåíò_12-6" x1="-99.88" y1="-123.12" x2="-81.66" y2="-142.8" gradientTransform="translate(182.87 268.38) rotate(98.88)" xlink:href="#Áåçûìÿííûé_ãðàäèåíò_12"/><radialGradient id="Áåçûìÿííûé_ãðàäèåíò_16-8" cx="346.99" cy="-1780.9" r="25.92" gradientTransform="matrix(0.91, 0.11, -0.18, 1.5, -282, 2868.49)" xlink:href="#Áåçûìÿííûé_ãðàäèåíò_16"/><linearGradient id="Áåçûìÿííûé_ãðàäèåíò_12-7" x1="186.47" y1="323.78" x2="206.72" y2="323.78" gradientTransform="matrix(0.91, 0.11, -0.14, 1.14, 204.87, -144.2)" xlink:href="#Áåçûìÿííûé_ãðàäèåíò_12"/><linearGradient id="linear-gradient" x1="288.41" y1="286.31" x2="288.41" y2="56.96" gradientUnits="userSpaceOnUse"><stop offset="0" stop-color="#42e8e0"/><stop offset="0.06" stop-color="#54eae3"/><stop offset="0.23" stop-color="#88f0eb"/><stop offset="0.4" stop-color="#b2f6f2"/><stop offset="0.57" stop-color="#d4faf8"/><stop offset="0.73" stop-color="#ecfdfc"/><stop offset="0.88" stop-color="#fafefe"/><stop offset="1" stop-color="#fff"/></linearGradient></defs><title>Feature_2 [Converted]</title><g class="cls-1"><g id="Ñëîé_1" data-name="Ñëîé 1"><g class="cls-2"><path class="cls-3" d="M431.63,270.3c8.75,11.2,13.61,23.63,13.61,36.69V263.74c0-13.07-4.86-25.49-13.61-36.69V270.3Z" transform="translate(-139.24 -56.96)"/><path class="cls-4" d="M314.79,175.8c32.87,2.82,62.27,11.7,84.8,24.6v43.26c-22.53-12.9-51.93-21.79-84.8-24.61V175.8Z" transform="translate(-139.24 -56.96)"/><path class="cls-5" d="M175.89,206c20.57-14,48.45-24.19,80.12-28.67V220.6c-31.67,4.47-59.55,14.68-80.12,28.67V206Z" transform="translate(-139.24 -56.96)"/><path class="cls-6" d="M139.24,307.05c0-.52,0-1.05,0-1.58a57,57,0,0,1,8.56-27.89V234.33a57,57,0,0,0-8.56,27.89c0,.53,0,1,0,1.58v43.25Z" transform="translate(-139.24 -56.96)"/></g><g class="cls-2"><path class="cls-7" d="M146.57,334.3a55.85,55.85,0,0,1-7.33-27.25V263.8A55.81,55.81,0,0,0,146.57,291V334.3Z" transform="translate(-139.24 -56.96)"/><path class="cls-8" d="M252.22,349.63c-31.51-4.95-58.92-15.59-78.86-29.87V363c19.94,14.29,47.35,24.93,78.86,29.87V349.63Z" transform="translate(-139.24 -56.96)"/><path class="cls-9" d="M396.73,328.73c-23.09,12.55-52.87,21-85.8,23.32V395.3c32.93-2.33,62.71-10.76,85.8-23.32V328.73Z" transform="translate(-139.24 -56.96)"/><path class="cls-10" d="M445.22,308.58c-.4,13.35-5.85,26-15.27,37.24V302.57c9.42-11.28,14.87-23.89,15.27-37.25v43.26Z" transform="translate(-139.24 -56.96)"/></g><g class="cls-11"><path class="cls-12" d="M284,289.1a8.8,8.8,0,0,1,8.78,0l52.33,30.14a1.24,1.24,0,0,1,0,2.14l-52.76,30.47a7.77,7.77,0,0,1-7.75,0L231.74,321.4a1.23,1.23,0,0,1,0-2.14Z" transform="translate(-139.24 -56.96)"/></g><g class="cls-11"><path class="cls-13" d="M284,280.28a8.8,8.8,0,0,1,8.78,0l52.33,30.14a1.24,1.24,0,0,1,0,2.14L292.33,343a7.72,7.72,0,0,1-7.75,0l-52.84-30.43a1.23,1.23,0,0,1,0-2.14Z" transform="translate(-139.24 -56.96)"/></g><g class="cls-11"><path class="cls-14" d="M284,271.47a8.8,8.8,0,0,1,8.78,0l52.33,30.14a1.24,1.24,0,0,1,0,2.14l-52.76,30.47a7.77,7.77,0,0,1-7.75,0l-52.84-30.44a1.23,1.23,0,0,1,0-2.14Z" transform="translate(-139.24 -56.96)"/></g><g class="cls-11"><path class="cls-15" d="M284,262.65a8.8,8.8,0,0,1,8.78,0l52.33,30.14a1.24,1.24,0,0,1,0,2.14l-52.76,30.46a7.72,7.72,0,0,1-7.75,0L231.74,295a1.23,1.23,0,0,1,0-2.14Z" transform="translate(-139.24 -56.96)"/></g><path class="cls-16" d="M231.74,292.82,284,262.65a8.8,8.8,0,0,1,8.78,0l52.33,30.14a1.23,1.23,0,0,1,.62,1.07V320.3a1.22,1.22,0,0,1-.62,1.07l-52.76,30.47a7.77,7.77,0,0,1-7.75,0L231.74,321.4a1.2,1.2,0,0,1-.62-1.07V293.89h0A1.21,1.21,0,0,1,231.74,292.82Z" transform="translate(-139.24 -56.96)"/><g class="cls-11"><path class="cls-17" d="M283,241a10.69,10.69,0,0,1,10.65,0l63.45,36.55a1.51,1.51,0,0,1,0,2.6l-64,36.93a9.4,9.4,0,0,1-9.4,0l-64.07-36.9a1.49,1.49,0,0,1,0-2.59Z" transform="translate(-139.24 -56.96)"/></g><g class="cls-11"><path class="cls-18" d="M283,230.35a10.66,10.66,0,0,1,10.65,0l63.45,36.54a1.51,1.51,0,0,1,0,2.6l-64,36.93a9.4,9.4,0,0,1-9.4,0l-64.07-36.9a1.49,1.49,0,0,1,0-2.59Z" transform="translate(-139.24 -56.96)"/></g><g class="cls-11"><path class="cls-19" d="M283,219.66a10.66,10.66,0,0,1,10.65,0l63.45,36.54a1.51,1.51,0,0,1,0,2.6l-64,36.94a9.44,9.44,0,0,1-9.4,0l-64.07-36.91a1.49,1.49,0,0,1,0-2.59Z" transform="translate(-139.24 -56.96)"/></g><g class="cls-11"><path class="cls-20" d="M283,209a10.66,10.66,0,0,1,10.65,0l63.45,36.55a1.5,1.5,0,0,1,0,2.59l-64,36.94a9.4,9.4,0,0,1-9.4,0l-64.07-36.9a1.5,1.5,0,0,1,0-2.6Z" transform="translate(-139.24 -56.96)"/></g><path class="cls-21" d="M219.69,245.55,283,209a10.66,10.66,0,0,1,10.65,0l63.45,36.55a1.48,1.48,0,0,1,.74,1.29v32.07a1.51,1.51,0,0,1-.74,1.3l-64,36.93a9.4,9.4,0,0,1-9.4,0l-64.07-36.9a1.48,1.48,0,0,1-.75-1.3V246.85h0A1.48,1.48,0,0,1,219.69,245.55Z" transform="translate(-139.24 -56.96)"/><g class="cls-11"><path class="cls-20" d="M283,209a10.66,10.66,0,0,1,10.65,0l63.45,36.55a1.5,1.5,0,0,1,0,2.59l-64,36.94a9.4,9.4,0,0,1-9.4,0l-64.07-36.9a1.5,1.5,0,0,1,0-2.6Z" transform="translate(-139.24 -56.96)"/></g><path class="cls-22" d="M219.69,246.67l64.07,36.9a9.4,9.4,0,0,0,9.4,0l64-36.94a1.45,1.45,0,0,0,.55-.55,1.49,1.49,0,0,1-.55,2l-64,36.94a9.4,9.4,0,0,1-9.4,0l-64.07-36.9a1.51,1.51,0,0,1-.56-2A1.5,1.5,0,0,0,219.69,246.67Z" transform="translate(-139.24 -56.96)"/><ellipse class="cls-23" cx="149.18" cy="189.97" rx="34.93" ry="20.17"/><path class="cls-24" d="M245,216.68c-4.49,4.59-16.31,10.72-20,7.13s2.22-15.54,6.71-20.13,11.1-5.39,14.77-1.8S249.48,212.09,245,216.68Z" transform="translate(-139.24 -56.96)"/><path class="cls-25" d="M245,216.68c-4.49,4.59-16.31,10.72-20,7.13s2.22-15.54,6.71-20.13,11.1-5.39,14.77-1.8S249.48,212.09,245,216.68Z" transform="translate(-139.24 -56.96)"/><path class="cls-26" d="M245.51,204.23a2,2,0,0,1-.83-.17,2.15,2.15,0,0,1-1.16-2.82l6.67-15.94a2.16,2.16,0,1,1,4,1.67l-6.67,15.94A2.17,2.17,0,0,1,245.51,204.23Z" transform="translate(-139.24 -56.96)"/><rect class="cls-26" x="333" y="197.86" width="4.32" height="36.85" transform="translate(-195.9 84.58) rotate(-22.04)"/><circle class="cls-27" cx="256.58" cy="177.97" r="13.41" transform="translate(-159.61 265.25) rotate(-62.26)"/><g class="cls-28"><path class="cls-29" d="M263.79,166.66a13.41,13.41,0,1,1-18.52,4.11A13.41,13.41,0,0,1,263.79,166.66Z" transform="translate(-139.24 -56.96)"/></g><path class="cls-30" d="M323.47,202.33c0,26-15.5,47.14-34.63,47.14s-34.63-21.1-34.63-47.14,15.51-33.84,34.63-33.84S323.47,176.29,323.47,202.33Z" transform="translate(-139.24 -56.96)"/><g class="cls-28"><path class="cls-31" d="M323.47,202.33c0,26-15.5,47.14-34.63,47.14s-34.63-21.1-34.63-47.14,15.51-33.84,34.63-33.84S323.47,176.29,323.47,202.33Z" transform="translate(-139.24 -56.96)"/></g><path class="cls-32" d="M305.56,192.14c-9.23,5.33-24.2,5.33-33.43,0s-9.23-14,0-19.3,24.19-5.33,33.43,0S314.79,186.81,305.56,192.14Z" transform="translate(-139.24 -56.96)"/><path class="cls-26" d="M272.13,176.47c9.23-5.33,24.19-5.33,33.43,0,3.81,2.2,6,5,6.7,7.84.95-4.07-1.29-8.34-6.7-11.47-9.24-5.33-24.2-5.33-33.43,0-5.42,3.13-7.65,7.39-6.71,11.46C266.08,181.44,268.32,178.67,272.13,176.47Z" transform="translate(-139.24 -56.96)"/><path class="cls-33" d="M261.56,150.06l4.28-7.37a23.87,23.87,0,0,0,5.54-9.55l4.33-7.46-6.23-3.58a4.19,4.19,0,0,0-.62-.36h0c-1.77-.84-4.13-.61-6.71.88-5.51,3.18-10,10.91-10,17.26,0,3.18,1.11,5.41,2.92,6.46h0Z" transform="translate(-139.24 -56.96)"/><ellipse class="cls-34" cx="268.56" cy="137.82" rx="14.1" ry="8.14" transform="translate(-124.32 244.53) rotate(-60)"/><circle class="cls-35" cx="150.98" cy="92.96" r="35.32"/><g class="cls-28"><circle class="cls-36" cx="150.98" cy="92.96" r="35.32"/></g><path class="cls-37" d="M310,173.8l4.28-7.36a23.91,23.91,0,0,0,5.54-9.56l4.33-7.46-6.22-3.58a4.82,4.82,0,0,0-.63-.35h0c-1.77-.84-4.13-.61-6.71.88-5.5,3.18-10,10.91-10,17.27,0,3.17,1.12,5.41,2.92,6.45h0Z" transform="translate(-139.24 -56.96)"/><path class="cls-38" d="M310,173.8l4.28-7.36a23.91,23.91,0,0,0,5.54-9.56l4.33-7.46-6.22-3.58a4.82,4.82,0,0,0-.63-.35h0c-1.77-.84-4.13-.61-6.71.88-5.5,3.18-10,10.91-10,17.27,0,3.17,1.12,5.41,2.92,6.45h0Z" transform="translate(-139.24 -56.96)"/><ellipse class="cls-34" cx="316.98" cy="161.57" rx="14.1" ry="8.14" transform="translate(-120.67 298.34) rotate(-60)"/><path class="cls-39" d="M307.47,167.41c0-6.36,4.47-14.09,10-17.27a8.4,8.4,0,0,1,5.21-1.31,8,8,0,0,0-5.67,1.23c-5.5,3.18-10,10.91-10,17.26,0,4.16,1.9,6.7,4.76,7.07C309.18,173.82,307.47,171.33,307.47,167.41Z" transform="translate(-139.24 -56.96)"/><path class="cls-32" d="M324.11,157.45A15.76,15.76,0,0,1,317,169.8c-3.93,2.27-7.12.43-7.12-4.12A15.76,15.76,0,0,1,317,153.34C320.92,151.07,324.11,152.91,324.11,157.45Z" transform="translate(-139.24 -56.96)"/><path class="cls-40" d="M321.08,152.47a5.83,5.83,0,0,1,1.17,3.84,15.74,15.74,0,0,1-7.13,12.34,5.69,5.69,0,0,1-4.09.87c1.27,1.5,3.46,1.72,6,.28a15.76,15.76,0,0,0,7.13-12.35C324.11,154.67,322.91,152.9,321.08,152.47Z" transform="translate(-139.24 -56.96)"/><path class="cls-32" d="M279.2,166.65c-.91,6.94-6.15,9.12-11.71,4.87s-9.35-13.33-8.44-20.28,6.14-9.13,11.71-4.87S280.1,159.7,279.2,166.65Z" transform="translate(-139.24 -56.96)"/><path class="cls-26" d="M274.6,160.63c-.33,2.53-2.23,3.32-4.25,1.77a8.78,8.78,0,0,1-3.07-7.37c.33-2.52,2.23-3.31,4.25-1.77A8.81,8.81,0,0,1,274.6,160.63Z" transform="translate(-139.24 -56.96)"/><path class="cls-40" d="M270.16,170.51c-5.57-4.26-9.34-13.34-8.44-20.28.37-2.83,1.46-4.87,3-6-2.91.27-5.11,2.74-5.66,7-.91,6.95,2.87,16,8.44,20.28,3.29,2.52,6.48,2.78,8.71,1.13A8.83,8.83,0,0,1,270.16,170.51Z" transform="translate(-139.24 -56.96)"/><path class="cls-26" d="M268,171.29C262.4,167,258.62,158,259.52,151c.42-3.21,1.77-5.4,3.65-6.41-2.13.87-3.67,3.16-4.12,6.64-.91,6.95,2.87,16,8.44,20.28,3,2.28,5.88,2.71,8.06,1.54C273.43,173.93,270.74,173.41,268,171.29Z" transform="translate(-139.24 -56.96)"/><circle class="cls-41" cx="328.25" cy="199.21" r="13.41" transform="translate(-23.34 462.16) rotate(-87.68)"/><g class="cls-28"><circle class="cls-42" cx="328.25" cy="199.21" r="13.41" transform="translate(-23.34 462.16) rotate(-87.68)"/></g><path class="cls-43" d="M349.64,243.65c-.76,6.38-6.39,18.45-11.48,17.84s-7.73-13.67-7-20,5.51-11,10.6-10.44S350.4,237.28,349.64,243.65Z" transform="translate(-139.24 -56.96)"/><path class="cls-44" d="M349.64,243.65c-.76,6.38-6.39,18.45-11.48,17.84s-7.73-13.67-7-20,5.51-11,10.6-10.44S350.4,237.28,349.64,243.65Z" transform="translate(-139.24 -56.96)"/><path class="cls-45" d="M219,57V246.43a1.51,1.51,0,0,0,.69,1.72l64.07,36.9a9.4,9.4,0,0,0,9.4,0l64-36.94a1.49,1.49,0,0,0,.74-1.3V57Z" transform="translate(-139.24 -56.96)"/></g></g></svg>